<svg width="118" height="32" viewBox="0 0 118 32" fill="none" xmlns="http://www.w3.org/2000/svg">
<g clip-path="url(#clip0_835_11660)">
<path d="M27.0346 2.29872C31.4052 7.87339 29.3012 17.0214 21.9079 18.4707C20.9147 18.7067 19.8817 18.7216 18.882 18.5146C17.8823 18.3075 16.9403 17.8835 16.1225 17.2724C15.3047 16.6614 14.631 15.8782 14.149 14.9782C13.667 14.0783 13.3886 13.0835 13.3332 12.0641C13.3205 10.4826 13.8693 8.94784 14.8821 7.73313C15.8949 6.51841 17.3059 5.70252 18.8639 5.43072C24.8799 4.46939 25.9826 12.9334 19.9999 13.3334C19.6463 13.3334 19.3072 13.1929 19.0571 12.9429C18.8071 12.6928 18.6666 12.3537 18.6666 12.0001C18.6666 11.6464 18.8071 11.3073 19.0571 11.0572C19.3072 10.8072 19.6463 10.6667 19.9999 10.6667C20.3535 10.6667 20.6927 10.5262 20.9427 10.2762C21.1928 10.0262 21.3332 9.68701 21.3332 9.33339C21.3332 8.97977 21.1928 8.64063 20.9427 8.39058C20.6927 8.14053 20.3535 8.00006 19.9999 8.00006C19.4413 8.00715 18.8904 8.13076 18.3824 8.363C17.8743 8.59524 17.4203 8.93098 17.0495 9.34874C16.6786 9.7665 16.3991 10.2571 16.2287 10.7891C16.0584 11.3211 16.0009 11.8828 16.0601 12.4383C16.1193 12.9937 16.2938 13.5307 16.5724 14.0149C16.851 14.4991 17.2277 14.9197 17.6782 15.25C18.1288 15.5802 18.6433 15.8128 19.1889 15.9327C19.7344 16.0527 20.2991 16.0575 20.8466 15.9467C22.602 15.7111 24.1936 14.7923 25.2756 13.3901C26.3576 11.9878 26.8426 10.2152 26.6252 8.45739C25.9279 0.99739 16.4906 -1.68928 11.3172 3.73339C9.33438 5.83577 8.17683 8.5831 8.05729 11.4706C7.93776 14.358 8.86427 17.1916 10.6666 19.4507L0.399917 29.7241C0.15704 29.9755 0.0226473 30.3123 0.0256852 30.6619C0.0287231 31.0115 0.168948 31.3459 0.416159 31.5931C0.66337 31.8404 0.997786 31.9806 1.34738 31.9836C1.69698 31.9867 2.03378 31.8523 2.28525 31.6094L12.5546 21.3334C25.6146 31.1067 39.8079 12.2094 27.0346 2.29872Z" fill="white"/>
</g>
<path d="M41.2642 23V8.45455H44.3395V20.4645H50.5753V23H41.2642ZM57.484 23.2131C56.3808 23.2131 55.4267 22.9787 54.6218 22.5099C53.8216 22.0365 53.2037 21.3783 52.7681 20.5355C52.3325 19.688 52.1147 18.7055 52.1147 17.5881C52.1147 16.4612 52.3325 15.4763 52.7681 14.6335C53.2037 13.786 53.8216 13.1278 54.6218 12.6591C55.4267 12.1856 56.3808 11.9489 57.484 11.9489C58.5872 11.9489 59.5389 12.1856 60.3391 12.6591C61.1441 13.1278 61.7643 13.786 62.1999 14.6335C62.6355 15.4763 62.8533 16.4612 62.8533 17.5881C62.8533 18.7055 62.6355 19.688 62.1999 20.5355C61.7643 21.3783 61.1441 22.0365 60.3391 22.5099C59.5389 22.9787 58.5872 23.2131 57.484 23.2131ZM57.4982 20.8693C58.0001 20.8693 58.4192 20.7273 58.7553 20.4432C59.0915 20.1544 59.3448 19.7614 59.5153 19.2642C59.6905 18.767 59.7781 18.2012 59.7781 17.5668C59.7781 16.9323 59.6905 16.3665 59.5153 15.8693C59.3448 15.3722 59.0915 14.9792 58.7553 14.6903C58.4192 14.4015 58.0001 14.2571 57.4982 14.2571C56.9916 14.2571 56.5655 14.4015 56.2198 14.6903C55.8789 14.9792 55.6209 15.3722 55.4457 15.8693C55.2752 16.3665 55.19 16.9323 55.19 17.5668C55.19 18.2012 55.2752 18.767 55.4457 19.2642C55.6209 19.7614 55.8789 20.1544 56.2198 20.4432C56.5655 20.7273 56.9916 20.8693 57.4982 20.8693ZM67.8462 8.45455V23H64.8207V8.45455H67.8462ZM73.2955 8.45455V23H70.2699V8.45455H73.2955ZM75.7191 23V12.0909H78.7447V23H75.7191ZM77.239 10.6847C76.7892 10.6847 76.4033 10.5355 76.0813 10.2372C75.7641 9.93419 75.6055 9.57197 75.6055 9.15057C75.6055 8.7339 75.7641 8.37642 76.0813 8.07812C76.4033 7.77509 76.7892 7.62358 77.239 7.62358C77.6888 7.62358 78.0723 7.77509 78.3896 8.07812C78.7115 8.37642 78.8725 8.7339 78.8725 9.15057C78.8725 9.57197 78.7115 9.93419 78.3896 10.2372C78.0723 10.5355 77.6888 10.6847 77.239 10.6847ZM81.1683 27.0909V12.0909H84.1513V13.9233H84.2862C84.4188 13.6297 84.6106 13.3314 84.8615 13.0284C85.1172 12.7206 85.4486 12.465 85.8558 12.2614C86.2678 12.053 86.7791 11.9489 87.3899 11.9489C88.1854 11.9489 88.9193 12.1572 89.5916 12.5739C90.264 12.9858 90.8014 13.6084 91.2038 14.4418C91.6063 15.2704 91.8075 16.3097 91.8075 17.5597C91.8075 18.7765 91.611 19.804 91.218 20.642C90.8298 21.4754 90.2995 22.1075 89.6271 22.5384C88.9595 22.9645 88.2114 23.1776 87.3828 23.1776C86.7957 23.1776 86.2962 23.0805 85.8842 22.8864C85.477 22.6922 85.1432 22.4484 84.8828 22.1548C84.6224 21.8565 84.4235 21.5559 84.2862 21.2528H84.1939V27.0909H81.1683ZM84.13 17.5455C84.13 18.1941 84.2199 18.7599 84.3999 19.2429C84.5798 19.7259 84.8402 20.1023 85.1811 20.3722C85.522 20.6373 85.9363 20.7699 86.424 20.7699C86.9164 20.7699 87.3331 20.6349 87.674 20.3651C88.0149 20.0904 88.273 19.7116 88.4482 19.2287C88.6281 18.741 88.718 18.1799 88.718 17.5455C88.718 16.9157 88.6304 16.3617 88.4553 15.8835C88.2801 15.4053 88.022 15.0312 87.6811 14.7614C87.3402 14.4915 86.9212 14.3565 86.424 14.3565C85.9316 14.3565 85.5149 14.4867 85.174 14.7472C84.8378 15.0076 84.5798 15.3769 84.3999 15.8551C84.2199 16.3333 84.13 16.8968 84.13 17.5455ZM98.7536 23.2131C97.6503 23.2131 96.6963 22.9787 95.8913 22.5099C95.0911 22.0365 94.4732 21.3783 94.0376 20.5355C93.602 19.688 93.3842 18.7055 93.3842 17.5881C93.3842 16.4612 93.602 15.4763 94.0376 14.6335C94.4732 13.786 95.0911 13.1278 95.8913 12.6591C96.6963 12.1856 97.6503 11.9489 98.7536 11.9489C99.8568 11.9489 100.808 12.1856 101.609 12.6591C102.414 13.1278 103.034 13.786 103.469 14.6335C103.905 15.4763 104.123 16.4612 104.123 17.5881C104.123 18.7055 103.905 19.688 103.469 20.5355C103.034 21.3783 102.414 22.0365 101.609 22.5099C100.808 22.9787 99.8568 23.2131 98.7536 23.2131ZM98.7678 20.8693C99.2696 20.8693 99.6887 20.7273 100.025 20.4432C100.361 20.1544 100.614 19.7614 100.785 19.2642C100.96 18.767 101.048 18.2012 101.048 17.5668C101.048 16.9323 100.96 16.3665 100.785 15.8693C100.614 15.3722 100.361 14.9792 100.025 14.6903C99.6887 14.4015 99.2696 14.2571 98.7678 14.2571C98.2611 14.2571 97.835 14.4015 97.4893 14.6903C97.1484 14.9792 96.8904 15.3722 96.7152 15.8693C96.5447 16.3665 96.4595 16.9323 96.4595 17.5668C96.4595 18.2012 96.5447 18.767 96.7152 19.2642C96.8904 19.7614 97.1484 20.1544 97.4893 20.4432C97.835 20.7273 98.2611 20.8693 98.7678 20.8693ZM106.09 27.0909V12.0909H109.073V13.9233H109.208C109.341 13.6297 109.532 13.3314 109.783 13.0284C110.039 12.7206 110.371 12.465 110.778 12.2614C111.19 12.053 111.701 11.9489 112.312 11.9489C113.107 11.9489 113.841 12.1572 114.513 12.5739C115.186 12.9858 115.723 13.6084 116.126 14.4418C116.528 15.2704 116.729 16.3097 116.729 17.5597C116.729 18.7765 116.533 19.804 116.14 20.642C115.752 21.4754 115.221 22.1075 114.549 22.5384C113.881 22.9645 113.133 23.1776 112.305 23.1776C111.718 23.1776 111.218 23.0805 110.806 22.8864C110.399 22.6922 110.065 22.4484 109.805 22.1548C109.544 21.8565 109.345 21.5559 109.208 21.2528H109.116V27.0909H106.09ZM109.052 17.5455C109.052 18.1941 109.142 18.7599 109.322 19.2429C109.502 19.7259 109.762 20.1023 110.103 20.3722C110.444 20.6373 110.858 20.7699 111.346 20.7699C111.838 20.7699 112.255 20.6349 112.596 20.3651C112.937 20.0904 113.195 19.7116 113.37 19.2287C113.55 18.741 113.64 18.1799 113.64 17.5455C113.64 16.9157 113.552 16.3617 113.377 15.8835C113.202 15.4053 112.944 15.0312 112.603 14.7614C112.262 14.4915 111.843 14.3565 111.346 14.3565C110.853 14.3565 110.437 14.4867 110.096 14.7472C109.76 15.0076 109.502 15.3769 109.322 15.8551C109.142 16.3333 109.052 16.8968 109.052 17.5455Z" fill="white"/>
<defs>
<clipPath id="clip0_835_11660">
<rect width="32" height="32" fill="white"/>
</clipPath>
</defs>
</svg>
