<svg width="89" height="48" viewBox="0 0 89 48" fill="none" xmlns="http://www.w3.org/2000/svg">
<g clip-path="url(#clip0_4586_2764)">
<path d="M19.148 12.8128C25.0778 12.2541 27.8573 17.137 25.0191 22.2053C22.5261 26.6539 16.3497 28.6094 17.8474 34.8702C18.3921 37.1473 19.7208 37.692 20.9368 39.293C24.3078 43.7322 20.7325 48.4554 15.5609 47.9554C7.78591 47.2018 1.00389 29.3606 3.58852 22.8415C5.6074 17.752 13.8989 13.3105 19.148 12.8152V12.8128Z" fill="#7CCDD1"/>
<path d="M24.2944 0.117463C28.3369 -0.798075 29.3745 3.88995 28.3016 6.94174C27.5997 8.93949 25.2968 11.8246 22.9727 10.4936C19.4726 8.49111 20.9609 0.873368 24.2944 0.117463Z" fill="#AC9EDA"/>
<path d="M33.2828 16.9679C35.088 16.6322 41.2151 15.7565 39.7009 19.0619C37.9497 18.205 35.7336 17.7402 33.9871 18.8459C33.7547 19.0689 33.2241 19.5807 33.048 19.7849C30.6676 23.224 33.3697 28.513 37.7196 27.2501C38.4849 27.027 38.4896 24.2358 37.7502 24.102C36.1397 24.4236 35.5904 24.0011 36.0998 22.8367C37.3041 22.6325 38.8629 22.6395 40.0906 22.8367C40.1329 24.6349 40.1094 26.4378 40.0202 28.2454C37.4191 29.2032 34.5481 29.0131 32.109 27.7665C28.8107 25.1607 29.407 18.7097 33.2828 16.9679Z" fill="#3D4AA4"/>
<path d="M34.2218 39.0348C33.8885 38.4972 34.1819 38.8775 34.1538 38.8728C28.083 37.5793 29.9728 30.5062 35.7055 31.9758C37.2126 32.3607 37.6422 32.4852 36.8299 34.0651C35.6797 33.4547 34.6538 33.234 33.7523 33.4007C33.7711 33.6284 32.3626 33.7974 32.3602 34.9266C32.3602 36.7741 37.0342 36.9901 37.6398 39.4879C38.0037 40.9879 37.6563 42.6453 36.3323 43.4951C34.8369 44.0843 29.1207 44.4764 30.562 41.9011C32.3391 42.6617 33.7922 42.7228 34.9238 42.0866C36.8417 39.8588 34.351 39.739 34.2195 39.0348H34.2218Z" fill="#3D49A4"/>
<path d="M16.0851 3.40392C20.2449 2.58698 20.2121 11.1719 16.2588 11.3527C12.7939 11.5099 12.5356 4.10114 16.0851 3.40392Z" fill="#AC9EDA"/>
<path d="M53.7067 21.1936C55.3687 19.4846 57.6717 19.0151 59.106 21.1936C59.4464 22.095 59.6225 28.4568 59.3032 28.6611C59.2304 28.708 57.6271 28.6822 57.5613 28.6235L57.5825 23.0246C57.5825 22.9965 57.8266 23.4613 57.4627 23.0716C57.4534 23.0106 56.9838 21.9964 56.9392 21.9518C55.8922 20.8508 54.4344 22.4448 53.7067 22.8368C53.5705 24.7102 53.5306 26.6211 53.5893 28.5695C53.4954 28.7315 51.9906 28.7057 51.8287 28.4709C51.6291 25.8464 51.6362 22.9026 51.8287 20.2546C53.1386 19.7991 53.7654 20.1137 53.7067 21.1936Z" fill="#3E4AA4"/>
<path d="M62.157 17.6724C62.7227 17.7968 63.3026 17.8367 63.8965 17.7897C64.1876 20.5692 64.1289 20.581 63.7228 17.8226L64.035 17.6724C64.4881 18.224 64.2322 19.271 64.2698 20.0199C64.744 20.3697 65.5938 20.372 66.3825 20.0199C66.4671 20.0316 66.568 19.9964 66.6173 20.0199C66.7769 20.2077 66.7887 21.4777 66.7347 21.5341C65.6806 21.4965 64.859 21.5387 64.2698 21.6632C64.5726 23.4825 63.4575 26.2432 65.2088 27.2972C65.6572 27.3818 66.244 27.3043 66.9694 27.0672C67.4671 29.6166 62.6852 29.4312 62.3917 27.1799C62.1781 25.3746 62.1734 23.4168 62.3917 21.6632C62.2697 23.2008 62.1922 24.7666 62.157 26.3582C61.5724 25.7338 62.1546 21.8909 61.9246 21.6608C61.7908 21.527 60.725 21.8744 60.5114 21.527C60.1404 18.987 61.5349 20.4002 61.9246 20.0199C62.0936 19.8532 61.6217 18.0292 62.157 17.6724Z" fill="#3E4BA5"/>
<path d="M40.0907 33.1659C41.6095 33.0133 42.1964 33.5861 41.849 34.8867L41.9687 35.2787C42.3654 35.4125 44.504 35.0698 44.5557 35.4125V36.922C44.4195 37.0581 42.403 36.7788 41.9687 36.922C41.7433 38.5981 41.6799 40.4081 42.1001 42.0701L42.4382 42.3213C43.2387 42.4035 44.0157 42.2978 44.7834 42.0865C45.1238 43.7697 44.4031 44.1665 42.7903 44.2181C42.0344 44.2416 41.64 44.1265 41.0297 43.7298C40.7667 43.4575 40.532 43.0256 40.3254 42.4387C40.0953 40.7813 40.1165 38.854 40.3254 37.1567C40.2057 38.7037 40.1259 40.2695 40.0907 41.8518C39.5038 41.2039 40.0907 37.152 39.8582 36.9196C39.7244 36.7858 38.6587 37.1332 38.445 36.7858C38.0741 34.2458 39.4662 35.6613 39.8582 35.2787C40.0155 35.1261 39.5672 33.4875 40.0907 33.1659Z" fill="#3E4AA4"/>
<path d="M8.80045 7.39484C12.8241 6.20464 12.6387 12.8247 10.1104 13.3975C6.60082 14.1956 6.5656 8.05449 8.80045 7.39484Z" fill="#AB9EDA"/>
<path d="M83.0506 35.2788C84.9944 34.6051 84.6728 36.685 84.8113 36.6897C85.377 35.044 86.6682 34.9008 88.2152 35.2811C88.3513 35.4173 87.8279 37.3282 87.741 37.3939C87.6307 37.4761 86.3606 36.7037 85.5226 37.6357C85.2784 37.908 85.2878 38.4409 84.9286 38.5677C84.8629 40.3706 84.7737 42.1618 84.661 43.9412L82.9426 43.852C82.8652 40.9903 82.9027 38.1334 83.0506 35.2811V35.2788Z" fill="#3B48A4"/>
<path d="M5.75763 16.6722C3.96881 18.3507 1.05082 13.503 3.47348 12.395C5.89613 11.2869 7.17788 15.3388 5.75763 16.6722Z" fill="#AB9DDA"/>
<path d="M33.0479 19.7852C31.2004 23.8886 33.0549 27.8935 37.98 27.0649C37.9049 26.6188 38.0786 24.3441 37.98 24.2455C37.8908 24.1563 36.2382 24.3112 35.8649 24.2478V22.6022H40.3276V28.1189C40.3276 28.9757 35.9846 29.011 35.271 28.9499C34.0784 28.8466 33.0502 28.5109 32.1112 27.7668L35.7405 28.7128C37.1443 28.7832 38.5505 28.6048 39.8698 28.1142C40.0365 26.4921 39.5411 24.4967 40.0928 22.8369H36.102V24.0131C36.5762 24.1093 37.9965 23.8065 38.2406 24.1492C38.5505 24.5835 38.5575 27.0109 38.1725 27.2597C37.6514 27.5931 35.5245 27.4287 34.8719 27.2362C31.8764 26.3512 31.2262 21.9073 33.0502 19.7875L33.0479 19.7852Z" fill="#3D4AA4"/>
<path d="M0.819083 17.0009C2.3215 16.6183 3.74646 19.9847 1.89191 20.4565C0.476344 20.8157 -0.946261 17.4493 0.819083 17.0009Z" fill="#A89AD8"/>
<path d="M34.222 39.0349C31.5341 38.4316 29.2124 36.4268 30.6514 33.4689C31.6374 31.4383 35.4028 31.2975 37.1165 32.2717C37.8889 32.7107 37.0555 33.5863 37.0367 34.3399C36.0343 33.807 34.9028 33.4502 33.7525 33.4009C33.7502 33.368 33.5389 33.2835 33.5154 33.1708C34.2666 32.6567 36.6682 33.9737 36.802 33.8704C36.8536 33.8305 37.0813 32.7999 37.0532 32.5957C34.0718 31.3303 30.2054 31.8186 30.696 35.8728C30.9238 37.7508 32.9379 38.2579 34.4451 38.8284C34.4192 38.927 34.2173 39.0185 34.2197 39.0373L34.222 39.0349Z" fill="#3D4AA4"/>
<path d="M53.7065 22.8369V28.9428C53.014 28.8489 52.2487 28.6471 51.5938 28.9428V20.0222H53.7089V21.196C53.2628 21.2007 53.5985 20.4049 53.4647 20.2664C53.3638 20.1607 52.1642 20.318 51.8308 20.257V28.4733H53.4765V22.7219C53.5234 22.3979 53.7018 22.844 53.7112 22.8393L53.7065 22.8369Z" fill="#3D4AA4"/>
<path d="M33.2832 16.9681C34.7715 16.299 37.6144 16.2943 39.145 16.8577C40.908 17.508 39.9854 17.7639 39.8563 19.3156C37.9665 18.3554 35.9852 17.9305 33.9898 18.8461C35.3256 17.569 38.0229 18.0526 39.6215 18.8461C40.4573 16.846 38.6661 17.1159 37.1566 16.738L33.2855 16.9681H33.2832Z" fill="#3D4AA4"/>
<path d="M34.9257 42.0866C34.914 42.1007 35.2074 42.2861 34.9468 42.427C33.489 43.2158 31.9373 42.2861 30.4678 42.0866C30.0828 43.6313 31.2894 43.366 32.4608 43.7299L36.3366 43.4928C35.4445 44.0679 34.4515 44.2581 33.3951 44.2088C32.8599 44.1829 30.3128 43.5914 30.0968 43.2721C29.9959 43.1219 30.3903 41.9974 30.233 41.6147C31.7941 41.995 33.266 42.812 34.9281 42.0843L34.9257 42.0866Z" fill="#3D4AA4"/>
<path d="M83.0506 35.2788V43.7323H84.6962V38.4503C84.7033 38.1592 84.9169 38.5724 84.9287 38.5677V44.2018C84.1727 44.0187 83.5507 43.7698 82.8182 44.2018C82.9591 43.1055 82.5271 35.4619 83.0506 35.2812V35.2788Z" fill="#3D4AA4"/>
<path d="M62.1575 26.3582C62.08 25.1657 62.1082 23.6891 62.1575 22.4824C62.1692 22.1937 61.9791 21.6115 62.3922 21.6631V27.1798C62.3922 27.4005 63.2021 28.2973 63.4791 28.4405C64.5191 28.9804 67.2375 28.8912 66.8526 27.2972C66.3478 27.4521 65.8595 27.485 65.336 27.5437C64.7844 27.6071 63.9041 27.6353 65.2116 27.2972L67.0873 26.8277C67.2117 28.1517 67.2282 28.7198 65.7821 28.9241C63.4956 29.248 62.3124 28.7057 62.1575 26.3559V26.3582Z" fill="#3D4AA4"/>
<path d="M59.106 21.1935C60.1788 22.8227 59.2797 26.9238 59.5732 28.9404C58.8783 28.5906 58.16 28.5906 57.4651 28.9404C57.2726 28.6728 57.62 24.0082 57.4651 23.0715L57.6998 22.9495V28.4709H59.3431L59.106 21.1912V21.1935Z" fill="#3D4AA4"/>
<path d="M41.0301 43.7299C40.1498 43.1547 40.1709 42.8214 40.0911 41.8519C39.9948 40.6945 40.0418 39.1569 40.0911 37.9761C40.1028 37.6873 39.9127 37.1051 40.3258 37.1568V42.4387C40.3258 42.6594 41.0512 43.3918 41.2602 43.6125L41.0301 43.7299Z" fill="#3D4AA4"/>
<path d="M64.0353 17.6724L64.0329 20.0199L63.8028 17.9071L62.5281 17.9048L62.2746 20.0222L62.1572 17.6724H64.0353Z" fill="#3D4AA4"/>
<path d="M42.4386 42.3212C42.3048 42.3071 42.1288 42.3822 42.0114 42.2883C41.6452 41.9996 41.6405 37.9524 41.7297 37.2623C41.7602 37.0228 41.732 36.9993 41.9715 36.9219C42.1405 38.6849 41.5348 40.7437 42.441 42.3212H42.4386Z" fill="#3D4AA4"/>
<path d="M40.0908 33.166H41.9712V35.2788C41.4125 35.091 41.9994 33.4548 41.6026 33.3961H40.3279L40.0979 35.2764V33.166H40.0908Z" fill="#3D4AA4"/>
<path d="M66.618 20.0198C67.0758 20.2381 66.7847 21.1724 66.8528 21.663H64.2705C64.2658 21.6396 63.9747 21.6184 64.0358 21.4306H66.618V20.0198Z" fill="#3D4AA4"/>
<path d="M66.3834 20.0198C66.0618 20.7992 64.9796 20.4212 64.2683 20.4893C64.2566 20.3344 64.2777 20.1771 64.2683 20.0198C64.942 20.0808 65.7308 19.9306 66.3811 20.0198H66.3834Z" fill="#3D4AA4"/>
<path d="M55.1153 35.2787V47.723H56.5262C56.6084 46.6243 56.4112 45.3919 56.5215 44.312C56.5473 44.0467 56.4018 43.7744 56.761 43.7298V43.9646C56.9135 45.2651 57.0544 46.683 56.761 47.9554C56.3478 48.0915 55.3947 47.8591 54.8806 47.9554C55.0872 46.5398 54.5167 35.483 55.1177 35.2764L55.1153 35.2787Z" fill="#3D4AA4"/>
<path d="M61.4531 43.0256C61.8428 42.0584 62.4086 41.3635 62.5659 40.2649C62.7302 39.1005 62.31 38.1638 62.6269 37.1567C63.3124 39.1967 62.972 41.5302 61.4531 43.0256Z" fill="#3D4AA4"/>
<path d="M56.7578 47.9554V43.9646C57.0959 44.8332 57.1146 46.4765 57.002 47.3803C56.9691 47.6408 57.1029 47.8404 56.7578 47.9554Z" fill="#3D49A5"/>
<path d="M62.6271 37.1568C62.059 35.4666 60.0917 34.7436 58.4414 35.2037C57.6174 35.4338 57.1902 36.1944 57.108 36.2202C56.4272 36.4338 57.1479 35.5089 56.77 35.3892C56.5117 35.246 55.3661 35.1943 55.115 35.2788C54.953 39.4621 54.9225 43.6454 55.0258 47.8358L56.6409 47.8053C56.5634 46.4061 56.6033 45.0493 56.7582 43.7299C57.1291 43.6853 57.6057 44.1173 58.0635 44.1854C59.6175 44.4201 60.4274 44.0351 61.4533 43.0257C62.9017 41.2509 62.8994 39.3025 62.6271 37.1568ZM59.7983 42.19C59.1879 42.589 57.5094 42.7111 57.1033 42.0961C56.9413 41.8496 56.9108 37.6357 57.0352 37.4315C57.3334 36.9456 59.1527 36.8141 59.756 37.0958C61.1082 37.7296 61.0636 41.3636 59.7983 42.19Z" fill="#3D49A5"/>
<path d="M66.3833 43.7298V47.9577H64.2705V35.281H66.3856V36.22C66.2941 36.2153 65.6227 35.3162 64.7424 35.7505V47.7229H66.1532C66.226 46.6196 66.0499 45.4059 66.1485 44.3167C66.172 44.0678 66.0312 43.7439 66.3856 43.7321L66.3833 43.7298Z" fill="#3D4AA4"/>
<path d="M68.6809 35.0956C67.7771 35.1918 66.5118 36.2271 66.3827 36.22C66.3827 35.3726 64.9812 35.1707 64.7394 35.7505C64.4835 35.9336 64.4061 36.2811 64.5047 36.7928C64.3638 40.286 64.4295 44.1406 64.5047 47.6502C64.5047 47.676 64.608 47.6995 64.7394 47.7229C64.8662 47.8967 66.2418 47.8802 66.2677 47.8051C66.1925 46.413 66.2301 45.0562 66.3827 43.7321C72.9135 47.021 74.8855 34.4406 68.6809 35.0956ZM66.3827 42.0865C66.209 40.6123 66.1268 39.0981 66.3827 37.6262C67.4391 36.1989 70.4463 36.652 70.1387 38.5652C70.4979 41.1921 69.2725 43.704 66.3827 42.0865Z" fill="#3D4AA4"/>
<path d="M66.3828 37.6264C66.6129 37.009 66.9345 36.8024 67.6904 36.7015C69.8243 36.4174 70.6131 37.6499 70.6131 39.6194C70.6131 39.8918 70.7727 40.5021 70.376 40.4434L70.1389 38.5677C69.9675 37.3024 68.9487 36.732 67.7303 36.9738C67.5425 37.0113 66.411 37.5607 66.3828 37.6287V37.6264Z" fill="#3D4AA4"/>
<path d="M66.3832 42.0865C65.8996 41.8166 66.118 38.3352 66.3832 37.6262C66.0968 38.2835 66.5922 41.1358 66.3832 42.0865Z" fill="#3D4AA4"/>
<path d="M47.8374 40.2084C47.8351 40.1967 47.3773 40.0535 47.72 39.9737H53.002C53.1123 39.8657 52.9527 37.267 52.7649 36.9219C53.0607 37.4947 53.9598 39.6051 53.2485 40.1051C52.6827 40.5019 48.814 40.0206 47.8351 40.2084H47.8374Z" fill="#3D4AA4"/>
<path d="M47.6026 35.7483C47.7669 35.8164 47.7622 35.8962 47.6026 35.983C45.3654 37.3047 45.41 40.4809 46.4288 42.5561C44.7926 40.38 45.0977 37.1099 47.6026 35.7483Z" fill="#3D4AA4"/>
<path d="M52.7671 36.9221C52.7295 36.8517 51.6919 35.9502 51.5746 35.8845C50.4783 35.2671 48.6777 35.3493 47.6025 35.9831V35.7484C49.5768 34.6755 51.6426 34.7577 52.7671 36.9221Z" fill="#3D4AA4"/>
<path d="M52.7673 36.922C51.6499 35.1121 49.2554 34.7412 47.6028 35.983C45.1919 37.0864 45.1402 40.5138 46.429 42.5561C46.49 42.6383 46.4431 42.9176 46.6708 43.1266C47.8 44.1712 49.7109 44.3473 51.1804 44.136C52.65 43.9247 53.3143 43.6571 52.765 42.0843C50.3353 42.4129 48.4432 43.1782 47.8375 40.2062C49.4127 40.1006 51.164 40.049 53.0913 40.0537C53.5819 39.5278 53.0044 37.6075 52.7673 36.9197V36.922ZM47.8375 38.8001C47.7647 36.0229 51.4339 35.8774 51.3588 38.8001H47.8375Z" fill="#3D4AA4"/>
<path d="M43.8467 20.724C47.3821 18.245 50.6099 20.947 50.185 24.9495H44.3162C44.4336 24.5951 44.6308 24.7336 44.8937 24.7054C45.6566 24.6185 49.5465 24.8861 49.7179 24.7148C50.2742 20.6817 47.3069 19.353 43.8467 20.7216V20.724Z" fill="#3D4AA4"/>
<path d="M45.2554 26.8275C46.6662 27.6022 48.0513 27.3323 49.4786 26.8275C49.3683 27.1844 49.8425 28.3323 49.7157 28.4708C49.6523 28.5412 49.1711 28.4098 49.0114 28.4708C49.1875 28.3816 49.3424 27.4027 49.2438 27.297C48.0865 27.4942 46.2672 27.8346 45.2342 27.1632C44.9525 26.9825 45.2648 26.8393 45.2554 26.8252V26.8275Z" fill="#3D4AA4"/>
<path d="M49.0109 28.4709C47.4122 29.0813 45.6985 29.2691 44.0811 28.4709L47.0249 28.7174C47.3347 28.7104 48.8536 28.5508 49.0109 28.4709Z" fill="#3D4AA4"/>
<path d="M49.9084 24.8346C50.5845 20.933 47.2158 18.7592 43.8471 20.7264C43.7532 20.7922 43.4902 20.7429 43.2766 20.9682C41.3939 22.9308 41.4643 27.1798 44.0818 28.4733C45.6946 28.931 47.4083 28.9874 49.0116 28.4733C49.6431 28.6658 49.4671 27.1704 49.3239 27.0788C48.0515 27.4545 45.8706 27.7479 45.2556 26.83C44.9058 26.3793 44.1217 25.5365 44.3166 24.952C46.157 24.8299 48.021 24.79 49.9084 24.8346ZM48.0726 23.5411C46.8613 23.7665 45.4809 23.7242 44.3166 23.5411C43.9715 20.6419 48.9412 21.0058 48.0726 23.5411Z" fill="#3D4AA4"/>
<path d="M48.0725 23.541C47.8987 24.0434 45.0747 23.6584 44.4361 23.7711C44.2953 23.7335 44.3281 23.6443 44.3164 23.541H48.0725Z" fill="#3D4AA4"/>
<path d="M74.5991 36.6872C72.8784 41.1991 74.0146 44.1007 79.1862 43.7392C80.1581 43.6711 80.9867 43.6945 80.7027 42.556C79.4233 42.6992 78.2096 43.0419 76.949 42.5419C76.9842 42.448 77.1861 42.3424 77.1837 42.3212C78.5077 42.9011 79.6369 42.2508 80.9398 42.0841C80.806 42.4386 81.1839 43.3471 81.0759 43.5067C80.6323 44.1687 77.9232 44.2509 77.1297 44.1359C73.3455 43.5889 72.484 39.408 74.6038 36.6848L74.5991 36.6872Z" fill="#3D4AA4"/>
<path d="M80.7033 36.4524C81.4615 37.5792 81.4685 38.8962 81.4099 40.2108H75.7734C75.8157 39.8281 76.2946 39.9925 76.5927 39.9713C78.0975 39.8657 79.6656 40.0535 81.1751 39.976L81.154 38.4689L80.7056 36.4547L80.7033 36.4524Z" fill="#3D4AA4"/>
<path d="M81.2645 40.0935C81.4006 38.8446 81.2081 37.6051 80.7034 36.4548C79.4757 34.6307 76.3581 34.7129 74.8416 36.1191C74.6139 36.3304 74.6609 36.6144 74.5998 36.6895C72.8462 39.8329 73.4002 43.549 77.4662 43.9504C78.7127 44.0749 81.8889 44.0725 80.5743 42.3588C79.2714 42.7931 78.1399 42.7814 77.1821 42.3236C77.1516 42.1241 75.6398 41.3963 75.7736 40.2108C77.5624 40.0512 79.3935 40.0136 81.2645 40.0935ZM79.2949 38.8H75.7736C75.9098 35.9994 79.539 35.8327 79.2949 38.8Z" fill="#3D49A5"/>
<path d="M78.1212 20.0199C76.2479 20.5715 74.8464 19.7382 73.4261 21.5458C72.196 23.1116 72.466 24.452 72.7195 26.2361C72.7712 26.6024 72.4848 26.5695 72.4871 26.5906C71.1373 22.7853 73.9332 18.6043 78.1212 20.0175V20.0199Z" fill="#3D4AA4"/>
<path d="M75.7732 27.0625C76.4962 27.3019 77.2451 27.363 78.0033 27.2972C79.5949 27.1611 79.5034 26.0812 80.0011 28.4687C77.8789 29.0203 76.0948 29.3889 74.1299 28.2362C75.9938 28.809 77.6653 28.9123 79.5292 28.2362C79.5668 28.1846 79.325 27.3278 79.2851 27.2996C79.1348 27.1846 76.2427 27.9663 75.5384 27.2855C75.5736 27.1916 75.7755 27.086 75.7732 27.0648V27.0625Z" fill="#3D4AA4"/>
<path d="M79.9983 21.8979C80.3082 22.8252 80.2237 23.9826 80.2354 24.9521H74.3643C74.376 24.5765 74.8971 24.7314 75.1835 24.715C76.7775 24.6187 78.4044 24.7901 79.9983 24.7173V21.9003V21.8979Z" fill="#3D4AA4"/>
<path d="M80.0899 24.8346C80.1486 23.8557 80.1345 22.865 79.9983 21.9002C79.7401 21.1302 78.8879 20.2804 78.1203 20.0221C73.5097 19.3578 71.7068 22.4964 72.4862 26.5952C72.5472 27.2784 73.6201 27.9404 74.1295 28.2385C75.2 28.9193 78.7987 29.0907 79.7002 28.37C79.8105 28.2808 79.5546 27.2079 79.3856 27.1328C77.9865 27.5718 76.7845 27.5483 75.7751 27.0647C75.754 26.9356 74.3337 25.9778 74.3666 24.952C76.2376 24.7947 78.1461 24.7548 80.0922 24.8346H80.0899ZM78.355 23.5411C77.2165 23.7289 75.8103 23.7618 74.599 23.5411C73.8079 21.2335 78.6837 20.3484 78.355 23.5411Z" fill="#3D4AA4"/>
<path d="M78.3557 23.541C78.3439 23.6443 78.3744 23.7359 78.2359 23.7734C77.5974 23.6584 74.771 24.0457 74.5996 23.541H78.3557Z" fill="#3D4AA4"/>
<path d="M70.6089 15.7942V28.9404C69.9117 28.5906 69.1933 28.5906 68.4961 28.9404V15.7942H70.6089Z" fill="#3D4AA4"/>
<path d="M70.3737 16.0291H68.7305V28.471H70.3737V16.0291Z" fill="#3F4BA5"/>
</g>
<defs>
<clipPath id="clip0_4586_2764">
<rect width="88.2367" height="48" fill="white"/>
</clipPath>
</defs>
</svg>
