<svg width="234" height="51" viewBox="0 0 234 51" fill="none" xmlns="http://www.w3.org/2000/svg">
<g clip-path="url(#clip0_1267_835)">
<path d="M20.1736 10.4777C20.0281 10.6124 19.8879 10.7661 19.7327 10.9095C19.6552 10.6219 19.9364 10.5519 20.1736 10.4777Z" fill="#FE8201"/>
<path d="M60.6867 24.6378C60.2309 22.6713 58.5778 21.6194 57.2016 20.3222C56.0343 19.2228 54.8538 18.132 53.675 17.0404C52.5121 15.9634 51.3104 14.9201 50.1484 13.8449C48.5315 12.3499 46.9189 10.8429 45.2994 9.35394C43.1146 7.34597 40.989 5.24819 38.7761 3.2644C36.5728 1.28839 34.4401 -1.10736 31.1648 0.560337C27.7238 3.39308 24.4044 6.50911 21.1423 9.52667C20.8081 9.83586 20.5066 10.1675 20.1725 10.4767C19.9477 10.5674 19.8004 10.7116 19.7317 10.9085C18.5212 12.0286 17.1502 13.1687 16.0287 14.3631C15.8674 14.4538 15.7202 14.5695 15.5879 14.7085C13.1634 17.4394 9.87574 19.8083 7.2987 22.4364C3.81796 26.8444 7.6346 29.2592 10.6507 31.9814C11.9661 33.1689 13.2965 34.3417 14.6181 35.5223C15.5553 36.3592 16.5004 37.1926 17.4394 38.0269C18.0548 38.5736 18.6728 39.1228 19.2908 39.6678C20.2941 40.553 21.2825 41.4633 22.2884 42.3451C24.9166 44.6484 27.5448 47.1236 30.2902 49.2559C31.871 50.4832 33.8627 51.1646 35.7776 50.2042C36.1823 50.0013 36.3233 49.8657 36.6592 49.5997C37.1292 49.2283 37.5347 48.7809 37.9817 48.3906C38.3388 48.0788 38.6861 47.7523 39.0397 47.4406C39.4267 47.0994 39.8041 46.7445 40.1858 46.4042C40.6117 46.0242 41.0798 45.6658 41.5083 45.2815C41.9976 44.8419 42.531 44.4144 43.0071 43.986C44.9908 42.2009 46.9331 40.3414 48.9141 38.5451C50.8652 36.7755 52.8886 35.0637 54.8211 33.2768C55.2293 32.8994 56.1559 32.1368 56.4081 31.7223C58.6457 29.7696 61.4784 28.0544 60.6867 24.6378ZM56.5112 29.4034L56.4963 29.6495C56.3164 29.4967 55.8976 29.6936 56.0554 29.9086C55.4321 30.1185 54.9084 30.6142 54.6448 31.2041C54.2463 31.2058 53.7032 31.6765 53.675 32.0677C53.049 32.44 52.4751 32.8822 51.9584 33.39C49.9641 35.1432 47.9602 36.9361 46.181 38.8905L45.9148 38.9743C44.0853 40.6506 42.2639 42.2924 40.4503 43.8996L40.4962 43.7036C40.1832 43.3832 37.9412 41.2534 37.7542 41.2526C37.5347 41.2526 36.9872 41.6067 37.1882 41.8269C36.6839 41.8813 36.0782 42.4729 35.9539 42.9496C35.4399 43.0515 34.9506 43.4911 34.8078 43.986C34.5874 43.8098 33.629 44.6812 33.5655 44.8488L33.6616 45.0224L33.4033 44.9792C33.0895 45.1036 32.1717 45.9681 32.1629 46.3178L31.8904 46.3213C31.4743 46.6227 31.0996 46.963 30.7672 47.3421C28.7139 45.4836 26.627 43.6768 24.5075 41.9202L24.228 41.9124C23.6162 41.0099 22.6561 40.1592 21.6713 39.6669L21.5575 39.3284C21.3468 39.0814 18.1817 36.0707 17.9622 36.2098C17.9296 36.2305 17.904 36.2624 17.8802 36.2979C17.3468 35.6303 15.0413 33.1387 14.5784 33.1551C14.5158 33.1577 14.4718 33.2164 14.4418 33.2751L14.4797 33.0722C14.15 32.7189 13.8211 32.3657 13.4931 32.0107L13.2956 32.0651C13.2798 31.6938 12.7922 31.2706 12.414 31.2879C12.4114 30.9018 11.5623 30.3284 11.1797 30.3379C11.2643 30.058 11.0007 29.9129 10.7389 29.9924L10.7345 29.7575C8.58678 28.0829 6.3236 25.954 8.70316 23.4114L10.0177 22.2127L10.0336 21.9597C10.1931 21.8724 10.3501 21.7818 10.4999 21.6816C10.6498 21.5823 10.7962 21.4812 10.9284 21.3638C12.6415 19.8394 14.3571 18.3013 15.9882 16.6992L16.2924 16.2596C16.9395 15.7889 17.5619 15.2889 18.1588 14.7578C22.4912 10.6589 26.8536 6.59115 31.2195 2.52599C32.8964 0.965385 35.1014 1.90589 36.5041 3.41381C38.6068 5.39587 40.7069 7.38225 42.8034 9.37208C43.306 9.91186 43.8729 10.3083 44.5041 10.5596L44.4565 10.7556C45.6829 11.9328 46.911 13.1108 48.1409 14.2914C48.4354 14.3734 48.5368 14.4693 48.6875 14.7275L48.8242 14.7051C48.7766 14.9279 49.0993 15.1498 49.265 14.9642C49.3003 15.0531 49.3391 15.1395 49.3876 15.2207C49.4343 15.2993 49.4837 15.3753 49.5471 15.4366C50.5028 16.3589 51.4788 17.2839 52.4583 18.1821C52.5227 18.2417 52.6064 18.2823 52.6928 18.322C52.7801 18.3626 52.8736 18.392 52.9679 18.4179C53.8883 19.589 54.9851 20.6055 56.23 21.4406C56.2088 21.761 56.4301 21.9882 56.759 21.9588L56.774 22.2093C60.1207 24.4573 59.6508 27.2685 56.5104 29.3991L56.5112 29.4034Z" fill="#F99746"/>
<path d="M44.5073 10.5641L48.8274 14.7096C48.9852 15.1103 48.3398 15.0412 48.3292 14.6103C47.661 14.5662 47.4159 14.7389 47.5948 15.1276C47.437 15.815 47.0174 16.9274 46.1181 16.6303C45.7998 17.1951 45.2691 16.962 45.5203 16.3635C45.5036 15.9135 45.4286 15.1552 45.2118 14.7968C45.1544 14.8443 45.0707 14.8935 45.0178 14.859C44.5937 14.58 44.0735 14.2536 43.6213 14.7536C43.3065 15.1008 43.206 15.942 43.3726 16.3643C43.7491 16.7961 43.9439 17.4672 43.3956 17.8368C44.9305 19.7999 45.888 21.7068 42.5906 21.9858C42.4513 21.9979 42.3579 24.2278 42.3746 24.657L42.215 24.9869C42.1225 25.2218 41.9488 25.145 41.9505 24.9006L41.7821 24.6112C41.7425 23.6535 41.6349 22.7009 41.4603 21.7543L41.5979 21.446C41.6067 21.3795 41.6243 21.2836 41.6755 21.2733C41.7874 21.2517 42.9988 21.2491 43.1037 21.2733L43.2289 21.446L43.2748 21.2586C44.6017 21.0349 44.1079 20.0771 43.6345 19.2757C43.1293 18.5891 42.6585 17.8835 42.2221 17.1606C41.7063 16.8419 41.1341 16.5966 40.5073 16.4231C39.7394 16.05 39.8954 14.9799 40.4923 14.5377C40.5602 13.3744 40.5373 11.9019 38.8762 12.3225C38.2926 12.4702 38.0828 13.3813 38.2282 13.89C38.0096 14.2873 38.0025 14.4773 38.3869 14.7536C38.6832 15.3478 38.7264 16.1847 38.0219 16.5025C38.4389 17.4499 38.9468 18.368 39.5463 19.2549C40.1158 20.4433 40.1044 21.6386 38.5518 21.8424C38.3005 21.8752 37.6049 21.9547 37.455 21.7923C37.2452 21.5652 37.6463 21.161 37.9364 21.18C39.6309 21.3061 39.3506 20.35 38.8048 19.2454L37.6023 17.2072C37.4039 16.3652 36.7885 15.8815 35.7561 15.7572L35.6909 15.5741C35.5198 15.8228 35.012 15.7114 34.9855 15.4014C34.8392 15.6535 34.4319 15.3858 34.3393 15.1742C34.1101 14.6509 34.5721 13.7414 34.8956 13.345C34.736 12.8061 34.647 12.2551 34.662 11.6842C34.602 10.4052 32.5487 10.3681 32.1396 11.515C31.9289 12.1057 31.9201 12.8631 31.9157 13.4763C32.5152 13.4918 32.4376 14.9756 32.2234 15.2554C32.0867 15.4333 31.9747 15.4402 31.9007 15.2295C31.764 15.4238 31.3734 15.6095 31.1954 15.4022L31.0754 15.613C30.5156 15.7123 30.051 15.9455 29.6824 16.3134C29.1473 17.2945 28.5592 18.2479 27.9183 19.1841C26.8312 21.0392 27.7552 21.2145 29.559 21.3259L29.8843 21.3933C30.3146 21.8744 30.6911 22.1516 31.1654 21.5116L31.3699 21.4477C31.4713 21.0565 31.7578 21.2543 31.7199 21.6032C32.2789 21.8165 32.9066 21.8744 33.6031 21.7768C33.8562 21.9098 35.6829 22.2889 35.6574 21.8657C35.5092 21.4149 35.2633 20.3682 35.9554 20.4977C36.0717 20.6109 36.0999 20.7896 36.04 21.0349C36.2895 22.542 36.2304 23.1189 34.5465 23.5429C33.2134 23.8789 32.0021 23.8106 30.8965 23.0705L30.766 24.2805L30.5773 24.3841C30.5421 24.6484 29.9302 24.6372 29.872 24.3841L29.6974 24.3055C29.7256 23.549 29.6807 22.7985 29.5599 22.0531L28.1572 21.8381C26.3287 21.5436 26.5826 19.9277 27.4378 18.7376C27.9236 18.0432 28.3556 17.3247 28.7312 16.582C28.1166 16.1968 27.9042 15.5724 28.2736 14.9341C28.7056 14.5222 28.6712 14.3434 28.4667 13.8105C28.6827 13.0514 28.293 12.2957 27.4448 12.2542C26.1303 12.1895 26.1673 13.6318 26.222 14.5481C27.4854 15.8487 26.2052 16.5077 24.9145 16.772C24.1827 17.1537 23.0445 18.8438 22.6963 19.6177C22.274 20.5573 22.3551 21.0116 23.4907 21.1731L23.5665 21.3614C23.5674 21.2949 23.5868 21.2292 23.6441 21.1886C23.7111 21.142 25.2055 21.1316 25.1975 21.3614L25.2989 21.6982C25.0256 22.8399 24.8854 24.0136 24.9912 25.1856L24.8449 25.5068C24.8396 25.7538 24.6403 25.7426 24.5804 25.5068L24.4208 25.1337C24.3987 24.0179 24.3282 22.9081 24.2101 21.8061C20.7673 22.0678 21.596 19.5425 23.1944 17.7557L23.3628 16.8341C23.9068 16.4006 23.8283 15.3012 23.4845 14.7847C23.1653 14.3037 21.9187 14.4764 21.9487 15.1811C22.0121 15.6864 21.9196 15.904 21.6718 15.8349C21.5237 15.9765 21.4355 16.3859 21.5387 16.5846C22.2193 16.9836 21.5131 17.6702 21.1516 16.9853C20.8334 17.1969 20.6756 17.0673 20.523 16.7556C20.3335 17.0906 20.0055 17.1442 19.8962 16.7288C19.7296 17.2789 19.2288 17.2781 19.2006 16.6916C19.011 16.7832 18.8276 16.8117 18.6266 16.7314C18.6857 17.1822 17.7212 17.3247 17.7247 16.8221C17.4637 17.0095 17.2662 16.9551 17.0723 16.7132C16.8095 17.2012 15.9164 16.6536 16.2938 16.2667C21.2451 11.6687 26.1197 6.9748 31.1045 2.40441C32.6307 1.16681 34.2635 1.3404 35.7314 2.53741C38.7308 4.98324 41.433 8.18908 44.5064 10.5667L44.5073 10.5641Z" fill="#FE7405"/>
<path d="M21.6711 15.8323C21.7672 15.9766 21.8113 16.1821 21.8051 16.4498C22.8552 17.4258 21.4771 18.1322 20.4765 18.2765C20.0392 18.4518 19.1858 19.7636 18.9415 20.2153C18.5466 20.9442 18.312 21.516 19.4494 21.5652C19.9995 21.5212 20.5153 21.5756 20.9993 21.7276C20.7251 23.0783 20.6123 24.4359 20.6607 25.8005L20.525 26.1088C20.458 26.1831 20.3892 26.2548 20.3116 26.3161C19.9475 26.6071 17.1738 27.5667 16.6792 27.5891C16.5805 27.5934 16.4809 27.5865 16.3812 27.5762C16.1926 27.6072 16.0841 27.5822 15.9598 27.4362L9.99548 22.1611L10.0343 21.9625C12.0859 20.0305 14.2494 18.1607 16.294 16.2624C16.2358 16.5077 16.3327 16.4732 16.4553 16.5777C16.9384 16.9896 16.8141 16.5794 17.0548 16.5267C17.2029 16.4939 17.2982 16.7547 17.4084 16.7729C17.5115 16.7901 17.7663 16.5112 17.9691 16.6088L17.8818 16.9525C17.9382 16.9939 18.4699 16.8998 18.4954 16.8627C18.5078 16.8437 18.409 16.7176 18.4231 16.6597C18.4804 16.4205 18.7396 16.62 18.8948 16.607C19.1117 16.5898 19.5481 16.208 19.3797 16.9084C19.7474 17.1218 19.594 16.6398 19.8761 16.531C20.2032 16.4058 20.0216 16.7193 20.1318 16.8679C20.435 16.8627 20.4121 16.0664 20.8397 16.9525L21.3202 16.6943C21.2241 17.3403 21.8624 17.12 21.6297 16.7772C21.5944 16.7245 21.4322 16.7297 21.4066 16.6347C21.2982 16.2305 21.6455 15.8928 21.5856 15.486L21.6729 15.8315L21.6711 15.8323Z" fill="#FE7E0C"/>
<path d="M16.3825 27.5778C15.522 28.1038 14.5946 28.5365 13.5992 28.8759C12.6682 29.3535 11.7151 29.7266 10.74 29.996C9.64324 29.0314 7.71596 27.6323 7.56696 26.152C7.34655 23.9661 8.64257 23.2752 10.0347 21.9642L16.3825 27.5778Z" fill="#FE6B04"/>
<path d="M45.213 14.796C45.2262 14.8064 45.3928 14.6734 45.4607 14.9428C45.4325 15.4187 45.585 15.8626 45.6494 16.3221C45.6644 16.4266 45.4898 16.8549 45.7852 16.7824C45.876 16.7599 45.9324 16.4784 46.0576 16.4508C46.1343 16.4344 46.3036 16.5276 46.4676 16.5086C46.77 16.4732 46.9701 16.2763 47.0644 16.006L46.889 15.9196C47.1358 15.9274 47.3818 15.461 47.4144 15.2641C47.4524 15.0353 47.3201 14.7442 47.3386 14.6725C47.3792 14.5179 48.2388 14.4031 48.4169 14.4462C48.5456 14.4773 48.5324 14.771 48.565 14.796C48.6461 14.8582 48.8145 14.7097 48.8286 14.7097C48.8886 14.7097 49.1998 14.91 49.2694 14.9688C50.5425 16.0405 51.7424 17.2928 52.9723 18.4233C54.0629 19.426 55.1518 20.4347 56.2344 21.4461C56.4169 21.6162 56.5853 21.7967 56.7634 21.9643C56.811 22.0135 56.8692 22.1024 56.8383 22.1318C55.0936 23.7943 53.1848 25.5371 51.3536 27.1211C51.1209 27.4164 50.867 27.5684 50.5919 27.5779C49.1178 27.3162 47.5881 26.811 46.2718 26.1097L46.1219 25.9491C46.4984 24.6657 46.1978 23.2856 45.876 22.0109C45.8098 21.7829 45.9421 21.6343 46.151 21.5739C48.2785 21.8338 48.8013 21.2811 47.7195 19.9148C47.4735 19.5219 46.7691 18.4484 46.367 18.2696C45.2668 18.0995 44.1753 17.3947 45.2218 16.3929C45.2015 15.911 45.1451 15.4299 45.0534 14.9515L45.2147 14.7952L45.213 14.796Z" fill="#FE7F0B"/>
<path d="M56.7615 21.9642C57.7207 22.8658 58.7408 23.4013 59.1446 24.7684C59.8367 27.1123 58.0205 28.2904 56.497 29.6506C56.3674 29.7663 56.1055 29.8656 56.0562 29.9097C55.7705 29.8674 55.4813 29.8173 55.2142 29.705C53.9147 29.1574 52.6107 28.6013 51.3164 28.0425C51.0502 27.9276 50.8165 27.754 50.59 27.5778L56.7615 21.9642Z" fill="#FE6C03"/>
<path d="M20.702 26.887C20.0513 27.3491 19.3292 27.7239 18.5375 28.0106C16.5917 28.9511 14.9263 29.9443 13.0881 31.0455C12.8818 31.169 12.6473 31.2337 12.4145 31.2916C12.0883 31.0031 11.5672 30.6819 11.1802 30.3416C11.0444 30.2215 10.8796 30.1196 10.7394 29.9961C12.5653 29.0919 14.4696 28.2973 16.3819 27.5779C17.7511 27.0623 19.1661 26.6512 20.5256 26.1097C20.8042 26.2203 20.9241 26.678 20.702 26.887Z" fill="#FEFDFD"/>
<path d="M30.577 24.3824L30.7233 24.6302C30.7568 26.0975 31.0381 27.5485 31.5671 28.9821C31.888 30.0228 31.8201 31.0661 31.7134 32.1284C31.8668 33.4359 32.1719 34.7322 32.6277 36.0191C32.8596 37.0148 32.931 37.4346 32.3032 38.3267C31.6614 39.2534 33.7923 39.0893 33.8999 38.6592C33.5146 36.8965 33.3171 35.0682 33.3965 33.2502C33.1778 32.4021 33.102 31.5402 33.1699 30.6628L33.4053 27.7937C33.0791 26.9448 33.8223 26.3385 33.8964 27.5536C33.862 28.1522 33.9175 28.7317 34.0639 29.2939C33.8188 29.7931 33.7183 30.2378 33.8973 30.7958C34.3495 31.7898 34.3495 32.536 33.989 33.5482C33.5384 35.3549 35.4287 35.443 35.1351 33.6579C34.9279 32.6871 34.9244 32.004 35.4666 31.1412C35.9841 29.0598 36.4549 26.8213 36.4999 24.6812L36.6595 24.3832C36.6877 24.1535 36.7688 24.1639 36.8358 24.3832L37.0236 24.6604C37.2687 26.3756 37.5208 28.0753 37.78 29.7603C38.1001 31.1326 39.1836 30.7595 39.0478 29.4088C39.3467 28.6004 39.4543 28.0675 38.9658 27.3032C38.9059 27.0035 39.2409 25.2546 39.5971 25.9386C39.9401 26.5967 39.8422 28.4743 39.7364 29.2749C39.7919 30.6844 39.7461 32.0869 39.5971 33.4817C39.33 34.0629 39.1466 34.6519 39.0478 35.2487C40.2504 35.5095 40.8182 35.5104 40.1111 34.1484C40.2539 33.0939 40.5131 32.0429 40.8869 30.9953C40.9072 29.1816 40.9363 27.6296 41.6566 25.9326L41.8603 25.765C42.0022 25.5794 42.3293 25.6968 42.3011 25.9378C42.3469 25.8816 42.4272 25.8143 42.473 25.8428C42.9861 26.1666 43.2515 27.9414 42.9244 28.5157C43.0064 29.3492 43.2259 30.1783 43.5812 31.0022C43.8431 31.6957 43.6756 32.2156 43.3494 32.8435C43.166 33.3798 44.4409 33.2977 44.4717 32.96C44.1191 31.8589 44.0547 30.8545 44.1658 29.6955L43.9559 28.2903C43.8572 27.6987 43.9842 27.4716 44.3359 27.6072C44.3959 29.5927 45.6575 29.0572 45.8885 27.5226L46.0922 27.4051L46.2376 27.2902C48.7168 28.8154 51.1969 30.3406 53.6778 31.8667L53.6743 32.0688C51.1969 34.3056 48.6869 36.6357 46.1803 38.8915C44.5123 40.3926 42.764 42.2002 41.0677 43.5993C40.8252 43.7996 40.7362 43.9231 40.4496 43.9007L37.8038 41.4341C37.6363 41.3495 37.3436 41.701 37.1876 41.8279C36.7538 42.1794 36.3685 42.5836 35.9533 42.9507C35.5609 43.297 35.1889 43.6312 34.8071 43.987C34.488 44.285 33.8558 44.6745 33.661 45.0234C33.0923 45.3533 32.6541 45.887 32.1622 46.3189C31.7196 46.7075 31.2276 47.0409 30.8371 47.4882L30.599 47.4692C28.8895 45.9518 27.1853 44.4137 25.4634 42.9066C25.0808 42.5715 24.6003 42.2407 24.2283 41.9143C23.3801 41.1716 22.502 40.3951 21.6715 39.6688C21.1548 39.2171 20.692 38.6955 20.1736 38.2429C19.7363 37.8612 18.2666 36.4742 17.8804 36.3006C16.8233 35.3359 15.775 34.3522 14.7065 33.3988C14.6166 33.3185 14.5152 33.3426 14.442 33.2779C14.0796 32.9557 13.6053 32.3408 13.2959 32.0688L13.2535 31.8909C15.7327 30.3657 18.2128 28.8405 20.6937 27.3144L20.878 27.4051L21.0014 27.4189C21.1319 28.3689 21.556 30.2353 22.4994 28.4164C22.9887 28.1306 23.0142 28.7636 22.9922 29.1367C22.8467 30.2076 22.7453 31.288 22.6871 32.3788C21.7235 33.6441 23.6922 33.5698 23.6164 33.1794C23.232 32.5723 23.2875 31.9332 23.4877 31.2613C24.0255 30.1428 24.1339 29.0503 23.8121 27.9846C23.9003 27.2047 24.0934 26.424 24.3914 25.6424L24.5818 25.5042H24.8463L25.0491 25.6908C25.5111 26.9621 25.7544 28.2472 25.7773 29.5461C25.8337 30.6662 26.9129 30.7586 27.2629 29.7128C27.6614 29.4753 27.7293 29.8604 27.6817 30.2016L27.5759 31.0764C27.7346 32.4332 27.6094 33.7261 27.2003 34.9551C26.6061 35.9603 28.7996 35.8127 28.5748 35.266C28.1242 34.7201 28.2336 34.1052 28.3596 33.4627C28.8807 31.9289 29.1593 30.5427 28.8869 28.9122C29.1064 27.482 29.3709 26.0561 29.6812 24.6337L29.8717 24.3798H30.577V24.3824Z" fill="#FAFAFB"/>
<path d="M20.7034 26.887C20.9731 26.8749 21.0939 27.2429 20.8797 27.4052L13.2975 32.0689C13.0198 31.8245 12.7051 31.5473 12.4159 31.2916C14.9832 29.5177 17.7957 28.053 20.7034 26.887Z" fill="#FD7F0A"/>
<path d="M50.5911 27.5779C52.4416 28.2766 54.2763 29.0574 56.0573 29.9098C55.5873 30.3312 55.1183 30.7795 54.6466 31.2052L54.2543 31.1128C51.6728 29.6939 49.0552 28.3423 46.4024 27.0563L46.0947 26.8007C45.8478 26.6746 46.0118 26.1391 46.271 26.1097C47.7195 26.5666 49.1716 27.0425 50.5911 27.5779Z" fill="#FDFDFD"/>
<path d="M54.6457 31.2052C54.3292 31.4911 53.9774 31.7968 53.6759 32.0688L46.0938 27.4052C45.8425 27.3292 45.8275 26.8956 46.0938 26.8006C49.0605 28.0425 51.8721 29.6049 54.6457 31.2052Z" fill="#FD8009"/>
<path d="M42.215 24.987C42.2361 25.291 42.4574 25.6209 42.3031 25.937C42.2097 25.8809 41.9716 25.8679 41.8623 25.7643C41.8914 25.5328 41.9408 25.0993 41.9505 24.9006L42.215 24.987Z" fill="#EBD7C4"/>
<path d="M35.6894 15.5732C36.2925 15.7477 37.1353 15.8712 37.4933 16.4403C37.6273 16.6537 37.6202 16.8704 37.7278 17.0743C38.2171 17.9984 39.5449 19.7282 39.3862 20.7076C39.3245 21.0867 38.9806 21.2819 38.6209 21.3398C38.1792 21.4106 37.6819 21.1757 37.54 21.7051C39.2319 21.7776 40.1638 21.3398 39.4955 19.5745C39.1975 18.7886 37.8971 17.1675 37.8415 16.5293C37.823 16.3203 38.1616 16.2702 38.285 16.0871C38.4772 15.803 38.412 15.1993 38.2753 14.9031C38.1933 14.7251 37.8574 14.688 37.8953 14.2389C37.9077 14.0904 38.0373 13.9824 38.0531 13.8701C38.0734 13.7311 37.9711 13.5938 37.9896 13.4668C38.1378 12.4745 38.5125 11.9839 39.6145 12.1169C40.1347 12.18 40.5208 12.5462 40.6046 13.0462C40.6443 13.2794 40.7219 14.4557 40.6496 14.6051C40.5808 14.7467 40.4239 14.745 40.3454 14.9177C39.5352 16.7055 41.5762 16.2348 42.3459 17.0406C42.5927 17.2988 42.6333 17.5786 42.7946 17.8101C43.3192 18.5597 45.2165 20.6877 43.7732 21.2923C43.7071 21.3199 43.2566 21.4469 43.2257 21.4469H41.5947C41.7331 22.586 42.0047 23.7476 41.9473 24.9014C42.1766 25.0578 42.1475 25.6658 41.8592 25.7651C41.7419 26.7004 41.2544 27.4613 41.1618 28.1479C41.0313 29.1186 41.2341 30.0919 41.0401 31.1378C40.8947 31.9203 40.1506 33.4981 40.2916 34.1666C40.3815 34.5906 40.7465 34.7798 40.5385 35.38C40.4741 35.5666 39.0688 35.621 38.903 35.3532C38.68 34.9914 39.3853 33.7797 39.4549 33.3004C39.6357 32.0654 39.5255 30.5238 39.5581 29.2637C39.5625 29.0815 39.6524 28.907 39.6533 28.7446C39.6612 27.805 39.6119 26.9535 39.4779 26.025C39.2469 26.006 39.3315 26.0138 39.3051 26.1555C39.2574 26.4033 39.1314 26.9984 39.1323 27.2031C39.1323 27.501 39.3747 27.647 39.4408 27.919C39.6083 28.6108 39.3377 28.8725 39.2195 29.4416C39.1243 29.9002 39.3103 30.7785 38.4648 30.7803C37.4492 30.782 37.5444 29.015 37.4404 28.4113C37.1865 26.944 36.8779 25.8912 36.8338 24.385C36.7844 24.3513 36.7448 24.3159 36.7377 24.2744C36.5711 23.3003 36.7827 23.6034 36.7421 24.3228C36.7412 24.3444 36.7042 24.3651 36.6575 24.3841C36.8223 26.4508 36.0403 29.0202 35.6489 31.1257C35.5634 31.5826 35.216 31.89 35.164 32.2053C35.0546 32.866 35.8675 34.9206 34.6676 35.0907C33.5717 35.2462 33.7278 34.0336 33.8441 33.3306C33.9006 32.9903 34.1078 32.6544 34.1078 32.2873C34.1086 31.4815 33.4836 30.8709 33.6652 29.7871C33.6996 29.5815 33.8768 29.4511 33.8882 29.3518C33.9041 29.2162 33.7604 28.9424 33.7507 28.7446C33.7216 28.1539 33.7569 27.5632 33.6608 26.9759C33.3346 27.1348 33.5911 27.5563 33.5814 27.7964C33.5285 29.0512 33.2869 30.5229 33.3178 31.7596C33.3293 32.2269 33.5365 32.783 33.5717 33.239C33.6246 33.9118 33.5329 34.6364 33.57 35.3135C33.622 36.2825 33.8803 37.1937 33.9464 38.1385C33.9649 38.4019 34.2136 38.6247 33.9685 38.8907C33.6678 39.2172 32.4705 39.263 32.1355 38.9866C31.7256 38.6489 32.504 37.711 32.6116 37.3828C32.8488 36.6625 31.618 33.6933 31.5422 32.5499C31.4954 31.8443 31.6621 31.1257 31.6339 30.4763C31.5492 28.5477 30.2603 26.4249 30.5768 24.385L30.754 22.7449C31.1974 22.9384 31.5413 23.2977 32.0271 23.4402C32.9978 23.7252 34.8695 23.4868 35.685 22.8684C36.3436 22.3684 35.6242 21.1912 35.9557 20.4995C35.901 20.2628 35.9319 19.9804 36.0474 19.6514C36.0588 18.3766 35.8852 17.0924 35.5254 15.7995L35.6912 15.5776L35.6894 15.5732Z" fill="#0D1424"/>
<path d="M41.5961 20.1506C41.5194 20.0746 41.694 19.255 41.8165 19.1142C42.2952 19.7991 43.0411 20.2542 41.5961 20.1506Z" fill="#F5750A"/>
<path d="M24.8454 25.5052C24.6796 23.9981 24.841 22.8244 25.198 21.3597H23.567C23.5053 21.3597 22.956 21.2267 22.8573 21.1913C21.7746 20.8113 22.4738 19.5996 22.8687 18.9484C23.1994 18.4043 24.1912 16.9309 24.6955 16.6788C25.5225 16.2651 27.0319 16.411 26.3909 14.9653C26.2948 14.7485 26.1291 14.758 26.0568 14.6051C25.9801 14.4445 26.0612 13.3701 26.1017 13.1326C26.3486 11.6739 28.5924 11.7266 28.707 13.3114C28.7211 13.5083 28.6338 13.6482 28.6426 13.7968C28.6559 14.0248 28.8516 14.1958 28.8004 14.473C28.729 14.8573 28.2106 14.9187 28.2812 15.7028C28.3314 16.259 28.8974 16.3419 28.9036 16.5622C28.9177 17.057 27.1615 19.1289 26.9843 20.1273C26.6827 21.8261 28.5183 21.6482 29.675 21.8977C29.8761 22.0947 29.8858 24.0033 29.8725 24.3816C29.8179 25.9603 29.2069 27.128 29.0808 28.4856C29.0006 29.3423 29.2377 30.1878 29.1566 31.0644C29.0508 32.195 28.2027 33.7599 28.4839 34.7686C28.5324 34.9431 28.7907 35.1469 28.7802 35.3947C28.7546 35.9863 27.3343 35.9319 27.0495 35.6556C26.7453 35.3602 27.3572 34.0017 27.4048 33.5802C27.4912 32.8159 27.3748 31.8676 27.4013 31.0722C27.4154 30.6516 27.5723 30.1878 27.4921 29.7379C27.3131 29.8476 27.2928 30.1196 27.1412 30.2993C26.9023 30.5817 26.6025 30.6637 26.234 30.5825C25.3753 30.3934 25.6212 28.686 25.5304 28.0754C25.4096 27.2575 24.9635 26.5588 24.848 25.5052H24.8454Z" fill="#0D1423"/>
<path d="M25.1091 18.8551L25.2854 20.0633C25.0236 20.0244 24.5298 20.1419 24.313 20.0236C24.1543 19.9363 24.4214 19.6453 24.4716 19.5693C24.5942 19.3862 24.7714 19.1349 24.9072 18.9639C24.9636 18.8922 24.9054 18.8058 25.1091 18.8551Z" fill="#F5750B"/>
<path d="M27.3154 26.1097C27.4406 26.1218 27.4688 26.4941 27.4802 26.5951C27.5129 26.8749 27.5587 27.2757 27.5728 27.546C27.5913 27.8975 27.3057 27.8595 27.1805 27.6652C26.9997 27.3836 27.4 26.4897 27.3145 26.1097H27.3154Z" fill="#EEEEEF"/>
<path d="M31.8996 15.2279L32.0363 15.3427C31.8644 16.8956 34.3153 18.8198 34.802 16.5933L34.8099 15.5086L34.9845 15.4015C35.2913 15.5422 35.51 15.5224 35.6898 15.5742C35.7074 16.5553 36.1509 17.4794 36.2223 18.4639C36.2682 19.0909 36.299 20.0047 35.9543 20.497C35.9376 20.5211 35.8459 20.5522 35.7903 20.6343C35.3768 21.2457 36.0372 21.656 35.7639 22.0791C35.5911 22.3469 34.5163 22.1759 34.1513 22.1336C34.02 22.118 33.9071 21.9867 33.7105 21.9608C33.2432 21.8986 32.5406 22.0023 32.1227 21.9643C31.9702 21.9505 31.7762 21.7302 31.5514 21.7881C31.4694 21.7086 31.7013 21.1905 31.3698 21.447C31.2163 21.2906 31.1476 21.0246 31.1617 20.649C30.2844 20.2387 30.3858 19.5798 30.5666 18.7438C31.107 17.6918 31.2922 16.6477 31.1238 15.6122L31.1925 15.4015C31.4033 15.3471 31.6298 15.1761 31.8979 15.2287L31.8996 15.2279Z" fill="#FE6C03"/>
<path d="M31.8985 15.2279C31.9179 15.2115 32.0307 15.2771 32.0748 15.1674C32.2097 14.8323 32.2555 14.0568 32.0783 13.7338C31.9928 13.5774 31.634 13.8115 31.7274 13.1171C31.7759 12.7553 31.7698 12.491 31.8103 12.1645C31.9531 11.015 32.4442 10.4243 33.7067 10.5651C35.1288 10.724 34.7638 11.7906 34.8917 12.6853C34.9305 12.9556 35.1006 13.0169 35.0689 13.3641C35.0371 13.7113 34.8079 13.6526 34.71 13.8789C34.6677 13.9773 34.4456 14.7546 34.4482 14.8366C34.4597 15.2918 34.6889 15.2659 34.9851 15.4015C34.9948 16.5095 35.195 17.8637 33.6195 17.7342C32.8586 17.6711 32.2361 16.8645 32.0122 16.1977C31.9514 16.0172 31.7847 15.3272 31.8994 15.2287L31.8985 15.2279Z" fill="#0D1222"/>
<path d="M31.1942 15.4006C31.4631 15.6959 31.4058 16.4309 31.3608 16.8161C31.2268 17.9794 30.4932 18.584 30.6599 19.939C30.7128 20.3717 31.1818 20.2698 31.3246 20.5833C31.3943 20.7362 31.4031 21.2742 31.3705 21.4452C31.3017 21.8088 30.8292 22.1068 30.4518 22.0489C30.0947 21.9936 29.9607 21.5972 29.8126 21.5463C29.5552 21.4582 28.9354 21.4789 28.618 21.421C26.949 21.117 27.0275 20.5133 27.7099 19.198C27.9859 18.666 28.3923 18.1798 28.7088 17.672C29.6398 16.1761 29.2634 15.9024 31.1942 15.3997V15.4006Z" fill="#0E1323"/>
<path d="M36.6598 24.3825C36.6457 24.2046 36.4729 23.284 36.6166 23.2589C36.7859 23.2296 36.8282 23.208 36.837 23.3867C36.8546 23.7166 36.8264 24.0526 36.837 24.3825H36.6607H36.6598Z" fill="#E27913"/>
<path d="M37.6297 19.977L36.8371 20.1506C36.7939 19.9986 36.8961 19.1134 37.0566 19.116C37.2082 19.236 37.7531 19.8052 37.6297 19.977Z" fill="#F47008"/>
<path d="M29.9597 20.0641C29.6881 20.071 29.369 20.0511 29.168 19.8482L29.8283 19.0277C30.039 19.33 29.9429 19.7204 29.9597 20.0641Z" fill="#F1700A"/>
<path d="M45.2127 14.796C45.2374 15.1613 45.4701 16.1899 45.3749 16.4689C45.3343 16.5889 45.0716 16.595 45.0108 16.9715C44.8494 17.9733 45.8907 17.8317 46.5087 18.1461C46.9698 18.381 48.451 20.5487 48.4712 21.0652C48.4809 21.3182 48.2817 21.5911 48.0383 21.6654C47.6434 21.7863 46.6286 21.7665 46.1878 21.738L46.0088 21.833C46.3138 22.9488 46.5457 24.1259 46.4452 25.2875C46.4214 25.5656 46.3094 25.8368 46.2706 26.1097C46.238 26.3386 46.1358 26.5856 46.0943 26.8006C46.0599 26.9777 46.1287 27.2281 46.0943 27.4052C45.9947 27.9216 45.7187 28.9969 45.0822 29.0539C44.577 29.0988 44.4271 28.876 44.2808 28.4476L44.1556 27.5788C44.0269 28.2628 44.2728 28.9036 44.3328 29.5271C44.4033 30.2543 44.1891 30.9737 44.3531 31.8313C44.4386 32.2778 44.9931 33.1164 44.3354 33.3272C44.0886 33.4066 43.3524 33.4403 43.2272 33.1933C43.0041 32.7511 43.452 32.3487 43.519 32.0058C43.6768 31.2 42.8216 29.7301 42.7414 28.831C42.692 28.2766 42.9945 27.8914 42.9107 27.2834C42.8878 27.1184 42.558 26.2505 42.4734 26.0916C42.4373 26.0233 42.3658 25.9758 42.3015 25.937C42.1639 25.7038 41.9726 25.1735 42.2133 24.987C42.1428 23.967 42.2415 22.8771 42.4302 21.8744C42.5827 21.6611 44.4818 21.9979 44.5946 20.7111C44.6572 19.9986 44.2094 19.2748 43.8364 18.6902C43.743 18.5425 43.199 17.9077 43.1867 17.8567C43.1443 17.678 43.4935 17.7082 43.5411 17.3498C43.6345 16.6528 43.1531 16.6649 43.1267 16.1226C43.0756 15.0784 43.3991 14.0679 44.6846 14.4065C44.9702 14.4816 45.0293 14.6561 45.2109 14.7969L45.2127 14.796Z" fill="#0D1423"/>
<path d="M46.8863 20.5814L46.0055 20.6678L46.1818 19.805C46.307 19.6945 46.9418 20.5063 46.8863 20.5814Z" fill="#F27A0D"/>
<path d="M44.7707 26.8006C44.7495 26.823 44.5873 26.6693 44.4198 26.7514C44.1703 26.8731 44.3422 27.178 44.1553 27.2324L44.2434 25.5923L44.7707 26.8006Z" fill="#F1F1F2"/>
<path d="M21.6709 15.8324C21.6727 15.8195 21.7423 15.7729 21.7547 15.6986C21.7996 15.4231 21.7203 15.2175 21.827 14.9058C22.0588 14.233 23.2499 14.1466 23.6502 14.7132C23.8477 14.993 23.9984 16.0207 23.9076 16.3325C23.8353 16.5804 23.6317 16.6546 23.5453 16.8481C23.4104 17.1469 23.4871 17.5131 23.3681 17.7972C23.2984 17.9639 22.877 18.3931 22.7271 18.6376C21.4778 20.6697 21.5739 21.6551 24.3167 21.7052C24.5001 22.9765 24.6606 24.2124 24.5803 25.5061C24.5274 26.3706 23.972 27.0434 23.9729 27.8043C23.9729 28.1739 24.2206 28.6731 24.218 29.0807C24.2127 30.1706 23.3116 31.555 23.5418 32.6121C23.5955 32.8609 23.9023 33.0733 23.7463 33.3661C23.57 33.6969 22.3789 33.7107 22.2889 33.2322C22.2061 32.7944 22.4732 32.5845 22.5323 32.2658C22.6566 31.5991 22.5949 30.9548 22.6416 30.3002C22.6866 29.6801 22.9581 29.0704 22.728 28.4425C22.5799 28.4813 22.616 28.7128 22.5049 28.8709C22.2687 29.2085 21.931 29.4417 21.4955 29.2604C20.9462 29.0324 20.9964 27.9044 20.8765 27.4061C20.8342 27.2282 20.724 27.0062 20.7002 26.8879C20.6473 26.6262 20.5662 26.3775 20.5239 26.1106C20.2841 24.6079 20.5821 23.2624 20.8765 21.7933C19.8759 21.618 17.9283 22.1534 18.5666 20.5229C18.6892 20.2102 19.897 18.4389 20.1307 18.255C20.6068 17.881 22.3418 18.0149 21.9195 16.7514C21.8816 16.6365 21.715 16.6287 21.6656 16.551C21.491 16.2772 21.6374 16.0829 21.67 15.8333L21.6709 15.8324Z" fill="#0D1424"/>
<path d="M20.5701 19.8068C20.7138 19.8077 20.8513 20.433 20.8399 20.585C19.6532 20.9045 20.0208 20.3742 20.5701 19.8068Z" fill="#F27B0E"/>
<path d="M22.8177 26.9725C22.2005 27.0114 22.5223 26.1141 22.6863 25.7643C22.8353 26.1495 22.83 26.5658 22.8177 26.9725Z" fill="#EAEAEB"/>
</g>
<g clip-path="url(#clip1_1267_835)">
<path d="M72.9539 26.3597V7.43697H80.3338C81.9918 7.43697 83.4065 7.69828 84.5779 8.22091C85.7493 8.74354 86.6504 9.50045 87.2811 10.4916C87.9119 11.4828 88.2272 12.6632 88.2272 14.0329C88.2272 15.4025 87.9119 16.583 87.2811 17.5742C86.6504 18.5473 85.7493 19.2952 84.5779 19.8178C83.4065 20.3405 81.9918 20.6018 80.3338 20.6018H74.4407L75.6571 19.3583V26.3597H72.9539ZM85.6051 26.3597L80.7933 19.4935H83.6858L88.5516 26.3597H85.6051ZM75.6571 19.6286L74.4407 18.304H80.2527C81.9827 18.304 83.2893 17.9346 84.1724 17.1957C85.0735 16.4388 85.524 15.3845 85.524 14.0329C85.524 12.6813 85.0735 11.636 84.1724 10.8971C83.2893 10.1582 81.9827 9.78879 80.2527 9.78879H74.4407L75.6571 8.43717V19.6286ZM98.2445 26.5219C97.019 26.5219 95.9377 26.2966 95.0006 25.8461C94.0815 25.3956 93.3606 24.7107 92.838 23.7916C92.3334 22.8545 92.0811 21.6831 92.0811 20.2774V12.0325H94.6762V19.98C94.6762 21.3857 95.0096 22.44 95.6764 23.1428C96.3612 23.8457 97.3164 24.1971 98.5418 24.1971C99.4429 24.1971 100.227 24.0169 100.894 23.6565C101.56 23.278 102.074 22.7374 102.435 22.0345C102.795 21.3136 102.975 20.4486 102.975 19.4394V12.0325H105.57V26.3597H103.11V22.4941L103.516 23.5213C103.047 24.4764 102.344 25.2153 101.407 25.738C100.47 26.2606 99.4159 26.5219 98.2445 26.5219ZM118.161 11.8973C119.332 11.8973 120.36 12.1226 121.243 12.5731C122.144 13.0237 122.847 13.7085 123.351 14.6276C123.856 15.5467 124.108 16.7091 124.108 18.1148V26.3597H121.513V18.4122C121.513 17.0245 121.17 15.9792 120.486 15.2764C119.819 14.5735 118.873 14.2221 117.647 14.2221C116.728 14.2221 115.926 14.4023 115.241 14.7628C114.557 15.1232 114.025 15.6548 113.646 16.3577C113.286 17.0605 113.106 17.9346 113.106 18.9798V26.3597H110.511V12.0325H112.998V15.8981L112.592 14.8709C113.061 13.9338 113.782 13.2039 114.755 12.6813C115.728 12.1586 116.863 11.8973 118.161 11.8973Z" fill="white"/>
<path d="M146.833 11.8973C147.987 11.8973 149.005 12.1226 149.888 12.5731C150.771 13.0237 151.456 13.7085 151.942 14.6276C152.447 15.5467 152.699 16.7091 152.699 18.1148V26.3597H150.104V18.4122C150.104 17.0245 149.78 15.9792 149.131 15.2764C148.482 14.5735 147.572 14.2221 146.401 14.2221C145.536 14.2221 144.779 14.4023 144.13 14.7628C143.481 15.1232 142.977 15.6548 142.616 16.3577C142.274 17.0605 142.103 17.9346 142.103 18.9798V26.3597H139.507V18.4122C139.507 17.0245 139.183 15.9792 138.534 15.2764C137.904 14.5735 136.993 14.2221 135.804 14.2221C134.957 14.2221 134.209 14.4023 133.56 14.7628C132.912 15.1232 132.407 15.6548 132.046 16.3577C131.686 17.0605 131.506 17.9346 131.506 18.9798V26.3597H128.911V12.0325H131.398V15.8441L130.992 14.8709C131.443 13.9338 132.137 13.2039 133.074 12.6813C134.011 12.1586 135.101 11.8973 136.345 11.8973C137.714 11.8973 138.895 12.2397 139.886 12.9246C140.877 13.5914 141.526 14.6096 141.832 15.9792L140.778 15.5467C141.211 14.4474 141.967 13.5643 143.049 12.8975C144.13 12.2307 145.392 11.8973 146.833 11.8973ZM166.368 26.3597V23.3321L166.233 22.7644V17.6012C166.233 16.5019 165.908 15.6548 165.26 15.0601C164.629 14.4474 163.674 14.141 162.394 14.141C161.547 14.141 160.718 14.2852 159.907 14.5735C159.096 14.8439 158.411 15.2133 157.853 15.6819L156.772 13.7355C157.51 13.1408 158.393 12.6903 159.421 12.3839C160.466 12.0595 161.556 11.8973 162.692 11.8973C164.656 11.8973 166.17 12.3749 167.233 13.33C168.296 14.2852 168.828 15.745 168.828 17.7093V26.3597H166.368ZM161.664 26.5219C160.601 26.5219 159.664 26.3417 158.853 25.9813C158.06 25.6208 157.447 25.1252 157.015 24.4945C156.582 23.8457 156.366 23.1158 156.366 22.3048C156.366 21.5299 156.546 20.8271 156.907 20.1963C157.285 19.5655 157.889 19.0609 158.718 18.6825C159.565 18.304 160.7 18.1148 162.124 18.1148H166.665V19.98H162.232C160.935 19.98 160.06 20.1963 159.61 20.6288C159.159 21.0613 158.934 21.584 158.934 22.1967C158.934 22.8996 159.213 23.4672 159.772 23.8998C160.331 24.3143 161.106 24.5215 162.097 24.5215C163.07 24.5215 163.917 24.3052 164.638 23.8727C165.377 23.4402 165.908 22.8094 166.233 21.9804L166.746 23.7646C166.404 24.6116 165.8 25.2874 164.935 25.792C164.07 26.2786 162.98 26.5219 161.664 26.5219ZM178.55 26.5219C177.109 26.5219 175.991 26.1344 175.198 25.3595C174.405 24.5846 174.009 23.4762 174.009 22.0345V8.89672H176.604V21.9264C176.604 22.7013 176.793 23.296 177.172 23.7105C177.568 24.125 178.127 24.3323 178.848 24.3323C179.659 24.3323 180.335 24.107 180.875 23.6565L181.686 25.5217C181.29 25.8641 180.812 26.1164 180.253 26.2786C179.713 26.4408 179.145 26.5219 178.55 26.5219ZM171.576 14.1681V12.0325H180.713V14.1681H171.576ZM190.728 26.5219C189.196 26.5219 187.845 26.2065 186.673 25.5758C185.52 24.945 184.619 24.08 183.97 22.9806C183.339 21.8813 183.024 20.6198 183.024 19.1961C183.024 17.7724 183.33 16.5109 183.943 15.4116C184.574 14.3122 185.43 13.4562 186.511 12.8435C187.61 12.2127 188.845 11.8973 190.214 11.8973C191.602 11.8973 192.828 12.2037 193.891 12.8164C194.954 13.4292 195.783 14.2942 196.378 15.4116C196.991 16.5109 197.297 17.7994 197.297 19.2772C197.297 19.3853 197.288 19.5115 197.27 19.6557C197.27 19.7998 197.261 19.935 197.243 20.0611H185.051V18.1959H195.891L194.837 18.8447C194.855 17.9256 194.666 17.1056 194.269 16.3847C193.873 15.6639 193.323 15.1052 192.62 14.7087C191.936 14.2942 191.134 14.087 190.214 14.087C189.313 14.087 188.511 14.2942 187.809 14.7087C187.106 15.1052 186.556 15.6729 186.16 16.4118C185.763 17.1326 185.565 17.9616 185.565 18.8987V19.3313C185.565 20.2864 185.781 21.1424 186.214 21.8993C186.664 22.6382 187.286 23.2149 188.079 23.6294C188.872 24.0439 189.782 24.2512 190.809 24.2512C191.656 24.2512 192.422 24.107 193.107 23.8187C193.81 23.5303 194.423 23.0978 194.945 22.5211L196.378 24.1971C195.729 24.954 194.918 25.5307 193.945 25.9272C192.99 26.3237 191.918 26.5219 190.728 26.5219Z" fill="#FF6F00"/>
</g>
<g clip-path="url(#clip2_1267_835)">
<path d="M71.9073 38.4777V45.6846H70.952V38.4777H71.9073ZM74.9267 41.7198V42.5019H71.6994V41.7198H74.9267ZM75.4167 38.4777V39.2598H71.6994V38.4777H75.4167ZM77.4115 40.3289V45.6846H76.4908V40.3289H77.4115ZM76.4215 38.9083C76.4215 38.7598 76.4661 38.6344 76.5552 38.5321C76.6476 38.4298 76.7829 38.3787 76.961 38.3787C77.1359 38.3787 77.2696 38.4298 77.362 38.5321C77.4577 38.6344 77.5055 38.7598 77.5055 38.9083C77.5055 39.0502 77.4577 39.1723 77.362 39.2746C77.2696 39.3736 77.1359 39.4231 76.961 39.4231C76.7829 39.4231 76.6476 39.3736 76.5552 39.2746C76.4661 39.1723 76.4215 39.0502 76.4215 38.9083ZM79.7973 41.4723V45.6846H78.8816V40.3289H79.7478L79.7973 41.4723ZM79.5795 42.8038L79.1984 42.789C79.2017 42.4227 79.2561 42.0844 79.3617 41.7743C79.4673 41.4608 79.6158 41.1885 79.8072 40.9575C79.9986 40.7266 80.2263 40.5484 80.4903 40.423C80.7575 40.2943 81.0529 40.2299 81.3763 40.2299C81.6403 40.2299 81.8778 40.2662 82.089 40.3388C82.3002 40.4081 82.4801 40.5203 82.6286 40.6754C82.7804 40.8305 82.8959 41.0318 82.9751 41.2793C83.0542 41.5235 83.0938 41.8221 83.0938 42.1752V45.6846H82.1732V42.1653C82.1732 41.8848 82.1319 41.6604 82.0494 41.4921C81.9669 41.3205 81.8465 41.1968 81.6881 41.1209C81.5297 41.0417 81.335 41.0021 81.104 41.0021C80.8763 41.0021 80.6684 41.0499 80.4804 41.1456C80.2956 41.2413 80.1355 41.3733 80.0002 41.5416C79.8682 41.7099 79.7643 41.903 79.6884 42.1207C79.6158 42.3352 79.5795 42.5629 79.5795 42.8038ZM87.8605 44.6451V38.0817H88.7812V45.6846H87.9397L87.8605 44.6451ZM84.257 43.0662V42.9622C84.257 42.553 84.3065 42.1818 84.4055 41.8485C84.5078 41.5119 84.6514 41.2232 84.8362 40.9823C85.0243 40.7414 85.247 40.5566 85.5044 40.4279C85.7651 40.2959 86.0555 40.2299 86.3756 40.2299C86.7121 40.2299 87.0058 40.2893 87.2566 40.4081C87.5107 40.5236 87.7252 40.6936 87.9001 40.9179C88.0783 41.139 88.2185 41.4063 88.3208 41.7198C88.4231 42.0333 88.4941 42.388 88.5337 42.784V43.2394C88.4974 43.6321 88.4264 43.9852 88.3208 44.2987C88.2185 44.6121 88.0783 44.8794 87.9001 45.1005C87.7252 45.3216 87.5107 45.4916 87.2566 45.6104C87.0025 45.7258 86.7055 45.7836 86.3657 45.7836C86.0522 45.7836 85.7651 45.7159 85.5044 45.5807C85.247 45.4454 85.0243 45.2556 84.8362 45.0114C84.6514 44.7672 84.5078 44.4802 84.4055 44.1502C84.3065 43.8169 84.257 43.4555 84.257 43.0662ZM85.1777 42.9622V43.0662C85.1777 43.3334 85.2041 43.5842 85.2569 43.8185C85.313 44.0528 85.3988 44.2591 85.5143 44.4373C85.6298 44.6154 85.7766 44.7557 85.9548 44.858C86.133 44.957 86.3459 45.0065 86.5934 45.0065C86.8969 45.0065 87.1461 44.9421 87.3408 44.8134C87.5388 44.6847 87.6972 44.5148 87.816 44.3036C87.9347 44.0924 88.0271 43.8631 88.0931 43.6156V42.4227C88.0535 42.2412 87.9958 42.0663 87.9199 41.898C87.8473 41.7264 87.7516 41.5746 87.6328 41.4426C87.5173 41.3073 87.3738 41.2001 87.2022 41.1209C87.0339 41.0417 86.8342 41.0021 86.6033 41.0021C86.3525 41.0021 86.1363 41.0549 85.9548 41.1605C85.7766 41.2628 85.6298 41.4047 85.5143 41.5862C85.3988 41.7644 85.313 41.9723 85.2569 42.2098C85.2041 42.4441 85.1777 42.6949 85.1777 42.9622ZM93.1914 38.4777L95.0625 42.096L96.9384 38.4777H98.0224L95.5376 42.9919V45.6846H94.5823V42.9919L92.0975 38.4777H93.1914ZM98.2402 43.0662V42.9523C98.2402 42.5662 98.2963 42.2082 98.4085 41.8782C98.5207 41.5449 98.6824 41.2562 98.8936 41.012C99.1048 40.7645 99.3605 40.5731 99.6608 40.4378C99.9611 40.2992 100.298 40.2299 100.671 40.2299C101.047 40.2299 101.385 40.2992 101.685 40.4378C101.989 40.5731 102.246 40.7645 102.457 41.012C102.672 41.2562 102.835 41.5449 102.947 41.8782C103.06 42.2082 103.116 42.5662 103.116 42.9523V43.0662C103.116 43.4522 103.06 43.8103 102.947 44.1403C102.835 44.4703 102.672 44.759 102.457 45.0065C102.246 45.2507 101.991 45.4421 101.69 45.5807C101.393 45.7159 101.057 45.7836 100.68 45.7836C100.304 45.7836 99.9661 45.7159 99.6658 45.5807C99.3655 45.4421 99.1081 45.2507 98.8936 45.0065C98.6824 44.759 98.5207 44.4703 98.4085 44.1403C98.2963 43.8103 98.2402 43.4522 98.2402 43.0662ZM99.1559 42.9523V43.0662C99.1559 43.3334 99.1873 43.5859 99.25 43.8235C99.3127 44.0578 99.4067 44.2657 99.5321 44.4472C99.6608 44.6286 99.8209 44.7722 100.012 44.8778C100.204 44.9801 100.426 45.0312 100.68 45.0312C100.931 45.0312 101.151 44.9801 101.339 44.8778C101.53 44.7722 101.689 44.6286 101.814 44.4472C101.939 44.2657 102.033 44.0578 102.096 43.8235C102.162 43.5859 102.195 43.3334 102.195 43.0662V42.9523C102.195 42.6883 102.162 42.4392 102.096 42.2049C102.033 41.9673 101.938 41.7578 101.809 41.5763C101.684 41.3915 101.525 41.2463 101.334 41.1407C101.146 41.0351 100.925 40.9823 100.671 40.9823C100.42 40.9823 100.199 41.0351 100.007 41.1407C99.8192 41.2463 99.6608 41.3915 99.5321 41.5763C99.4067 41.7578 99.3127 41.9673 99.25 42.2049C99.1873 42.4392 99.1559 42.6883 99.1559 42.9523ZM107.541 44.4472V40.3289H108.462V45.6846H107.585L107.541 44.4472ZM107.714 43.3186L108.095 43.3087C108.095 43.6651 108.057 43.9951 107.981 44.2987C107.909 44.5989 107.79 44.8596 107.625 45.0807C107.46 45.3018 107.244 45.4751 106.977 45.6005C106.709 45.7225 106.384 45.7836 106.002 45.7836C105.741 45.7836 105.502 45.7456 105.284 45.6698C105.069 45.5939 104.885 45.4767 104.729 45.3183C104.574 45.1599 104.454 44.9537 104.368 44.6996C104.286 44.4455 104.244 44.1403 104.244 43.7839V40.3289H105.16V43.7938C105.16 44.0347 105.186 44.2343 105.239 44.3927C105.295 44.5478 105.37 44.6715 105.462 44.7639C105.558 44.853 105.663 44.9157 105.779 44.952C105.898 44.9883 106.02 45.0065 106.145 45.0065C106.534 45.0065 106.843 44.9322 107.071 44.7837C107.298 44.6319 107.462 44.429 107.561 44.1749C107.663 43.9175 107.714 43.6321 107.714 43.3186ZM110.773 41.1704V45.6846H109.857V40.3289H110.748L110.773 41.1704ZM112.446 40.2992L112.441 41.1506C112.365 41.1341 112.293 41.1242 112.223 41.1209C112.157 41.1143 112.082 41.111 111.996 41.111C111.785 41.111 111.598 41.144 111.436 41.21C111.275 41.276 111.138 41.3684 111.026 41.4872C110.913 41.606 110.824 41.7479 110.758 41.9129C110.696 42.0745 110.654 42.2527 110.635 42.4474L110.377 42.5959C110.377 42.2725 110.408 41.969 110.471 41.6852C110.537 41.4014 110.638 41.1506 110.773 40.9328C110.908 40.7117 111.08 40.5401 111.288 40.418C111.499 40.2926 111.75 40.2299 112.04 40.2299C112.106 40.2299 112.182 40.2382 112.268 40.2547C112.354 40.2679 112.413 40.2827 112.446 40.2992ZM118.604 42.8583H116.678V42.0811H118.604C118.977 42.0811 119.279 42.0218 119.51 41.903C119.74 41.7842 119.909 41.6192 120.014 41.408C120.123 41.1968 120.178 40.9559 120.178 40.6853C120.178 40.4378 120.123 40.2052 120.014 39.9874C119.909 39.7696 119.74 39.5947 119.51 39.4627C119.279 39.3274 118.977 39.2598 118.604 39.2598H116.901V45.6846H115.946V38.4777H118.604C119.148 38.4777 119.608 38.5717 119.985 38.7598C120.361 38.9479 120.646 39.2086 120.841 39.5419C121.036 39.8719 121.133 40.2497 121.133 40.6754C121.133 41.1374 121.036 41.5317 120.841 41.8584C120.646 42.1851 120.361 42.4342 119.985 42.6058C119.608 42.7741 119.148 42.8583 118.604 42.8583ZM125.301 44.7689V42.0119C125.301 41.8007 125.258 41.6175 125.172 41.4624C125.09 41.304 124.964 41.1819 124.796 41.0961C124.628 41.0103 124.42 40.9674 124.172 40.9674C123.941 40.9674 123.738 41.007 123.563 41.0862C123.392 41.1654 123.256 41.2694 123.158 41.3981C123.062 41.5268 123.014 41.6654 123.014 41.8139H122.098C122.098 41.6225 122.148 41.4327 122.247 41.2446C122.346 41.0565 122.488 40.8866 122.672 40.7348C122.861 40.5797 123.085 40.4576 123.346 40.3685C123.61 40.2761 123.903 40.2299 124.227 40.2299C124.616 40.2299 124.959 40.2959 125.256 40.4279C125.557 40.5599 125.791 40.7596 125.959 41.0268C126.131 41.2908 126.216 41.6225 126.216 42.0218V44.5164C126.216 44.6946 126.231 44.8844 126.261 45.0857C126.294 45.287 126.342 45.4602 126.405 45.6054V45.6846H125.449C125.403 45.579 125.367 45.4388 125.34 45.2639C125.314 45.0857 125.301 44.9207 125.301 44.7689ZM125.459 42.4375L125.469 43.081H124.543C124.283 43.081 124.05 43.1025 123.846 43.1454C123.641 43.185 123.469 43.246 123.331 43.3285C123.192 43.411 123.087 43.5149 123.014 43.6403C122.941 43.7624 122.905 43.906 122.905 44.071C122.905 44.2393 122.943 44.3927 123.019 44.5313C123.095 44.6699 123.209 44.7804 123.36 44.8629C123.516 44.9421 123.705 44.9817 123.93 44.9817C124.21 44.9817 124.458 44.9223 124.672 44.8035C124.887 44.6847 125.057 44.5395 125.182 44.368C125.311 44.1964 125.38 44.0297 125.39 43.868L125.781 44.3086C125.758 44.4472 125.695 44.6006 125.593 44.7689C125.491 44.9372 125.354 45.0989 125.182 45.254C125.014 45.4058 124.812 45.5328 124.578 45.6351C124.347 45.7341 124.086 45.7836 123.796 45.7836C123.433 45.7836 123.115 45.7126 122.841 45.5708C122.57 45.4289 122.359 45.2391 122.207 45.0015C122.059 44.7606 121.984 44.4917 121.984 44.1947C121.984 43.9076 122.04 43.6552 122.153 43.4374C122.265 43.2163 122.427 43.0332 122.638 42.888C122.849 42.7395 123.103 42.6273 123.4 42.5514C123.697 42.4755 124.029 42.4375 124.395 42.4375H125.459ZM129.8 45.0312C130.018 45.0312 130.219 44.9867 130.404 44.8976C130.589 44.8085 130.741 44.6864 130.859 44.5313C130.978 44.3729 131.046 44.1931 131.062 43.9918H131.933C131.917 44.3086 131.81 44.6039 131.612 44.8778C131.417 45.1484 131.161 45.3678 130.845 45.5361C130.528 45.7011 130.18 45.7836 129.8 45.7836C129.398 45.7836 129.046 45.7126 128.746 45.5708C128.449 45.4289 128.201 45.2342 128.003 44.9867C127.809 44.7392 127.662 44.4554 127.563 44.1353C127.467 43.8119 127.419 43.4704 127.419 43.1107V42.9028C127.419 42.5431 127.467 42.2032 127.563 41.8832C127.662 41.5598 127.809 41.2743 128.003 41.0268C128.201 40.7794 128.449 40.5847 128.746 40.4428C129.046 40.3009 129.398 40.2299 129.8 40.2299C130.219 40.2299 130.585 40.3157 130.899 40.4873C131.212 40.6556 131.458 40.8866 131.637 41.1803C131.818 41.4707 131.917 41.8007 131.933 42.1702H131.062C131.046 41.9492 130.983 41.7495 130.874 41.5713C130.769 41.3931 130.623 41.2512 130.439 41.1456C130.257 41.0367 130.044 40.9823 129.8 40.9823C129.52 40.9823 129.284 41.0384 129.092 41.1506C128.904 41.2595 128.754 41.408 128.642 41.5961C128.533 41.7809 128.454 41.9871 128.404 42.2148C128.358 42.4392 128.335 42.6685 128.335 42.9028V43.1107C128.335 43.345 128.358 43.576 128.404 43.8037C128.45 44.0314 128.528 44.2376 128.637 44.4224C128.749 44.6072 128.899 44.7557 129.087 44.8679C129.279 44.9768 129.516 45.0312 129.8 45.0312ZM135.186 45.7836C134.813 45.7836 134.474 45.7209 134.171 45.5955C133.871 45.4668 133.611 45.287 133.394 45.056C133.179 44.825 133.014 44.5511 132.899 44.2343C132.783 43.9175 132.725 43.571 132.725 43.1949V42.987C132.725 42.5514 132.79 42.1636 132.919 41.8238C133.047 41.4806 133.222 41.1902 133.443 40.9526C133.664 40.715 133.915 40.5352 134.196 40.4131C134.476 40.291 134.766 40.2299 135.067 40.2299C135.449 40.2299 135.779 40.2959 136.057 40.4279C136.337 40.5599 136.567 40.7447 136.745 40.9823C136.923 41.2166 137.055 41.4938 137.141 41.8139C137.226 42.1306 137.269 42.4771 137.269 42.8533V43.2642H133.27V42.5167H136.354V42.4474C136.34 42.2098 136.291 41.9789 136.205 41.7545C136.123 41.5301 135.991 41.3453 135.809 41.2001C135.628 41.0549 135.38 40.9823 135.067 40.9823C134.859 40.9823 134.667 41.0268 134.493 41.1159C134.318 41.2017 134.168 41.3304 134.042 41.502C133.917 41.6736 133.819 41.8832 133.75 42.1306C133.681 42.3781 133.646 42.6636 133.646 42.987V43.1949C133.646 43.4489 133.681 43.6882 133.75 43.9126C133.823 44.1337 133.927 44.3284 134.062 44.4966C134.2 44.6649 134.367 44.7969 134.562 44.8926C134.76 44.9883 134.984 45.0362 135.235 45.0362C135.558 45.0362 135.832 44.9702 136.057 44.8382C136.281 44.7062 136.477 44.5296 136.646 44.3086L137.2 44.7491C137.085 44.924 136.938 45.0906 136.76 45.249C136.581 45.4074 136.362 45.5361 136.101 45.6351C135.844 45.7341 135.539 45.7836 135.186 45.7836ZM139.17 44.5956V45.3332C139.17 45.6335 139.094 45.9502 138.942 46.2835C138.791 46.6201 138.578 46.9006 138.304 47.125L137.784 46.7637C137.89 46.6185 137.979 46.47 138.051 46.3182C138.124 46.1697 138.178 46.0146 138.215 45.8529C138.254 45.6945 138.274 45.5262 138.274 45.348V44.5956H139.17ZM143.947 38.4777V45.6846H142.991V38.4777H143.947ZM146.966 41.7198V42.5019H143.739V41.7198H146.966ZM147.456 38.4777V39.2598H143.739V38.4777H147.456ZM149.451 40.3289V45.6846H148.53V40.3289H149.451ZM148.461 38.9083C148.461 38.7598 148.505 38.6344 148.595 38.5321C148.687 38.4298 148.822 38.3787 149 38.3787C149.175 38.3787 149.309 38.4298 149.401 38.5321C149.497 38.6344 149.545 38.7598 149.545 38.9083C149.545 39.0502 149.497 39.1723 149.401 39.2746C149.309 39.3736 149.175 39.4231 149 39.4231C148.822 39.4231 148.687 39.3736 148.595 39.2746C148.505 39.1723 148.461 39.0502 148.461 38.9083ZM151.837 41.4723V45.6846H150.921V40.3289H151.787L151.837 41.4723ZM151.619 42.8038L151.238 42.789C151.241 42.4227 151.295 42.0844 151.401 41.7743C151.507 41.4608 151.655 41.1885 151.847 40.9575C152.038 40.7266 152.266 40.5484 152.53 40.423C152.797 40.2943 153.092 40.2299 153.416 40.2299C153.68 40.2299 153.917 40.2662 154.128 40.3388C154.34 40.4081 154.519 40.5203 154.668 40.6754C154.82 40.8305 154.935 41.0318 155.014 41.2793C155.094 41.5235 155.133 41.8221 155.133 42.1752V45.6846H154.213V42.1653C154.213 41.8848 154.171 41.6604 154.089 41.4921C154.006 41.3205 153.886 41.1968 153.727 41.1209C153.569 41.0417 153.374 41.0021 153.143 41.0021C152.916 41.0021 152.708 41.0499 152.52 41.1456C152.335 41.2413 152.175 41.3733 152.04 41.5416C151.908 41.7099 151.804 41.903 151.728 42.1207C151.655 42.3352 151.619 42.5629 151.619 42.8038ZM159.9 44.6451V38.0817H160.821V45.6846H159.979L159.9 44.6451ZM156.296 43.0662V42.9622C156.296 42.553 156.346 42.1818 156.445 41.8485C156.547 41.5119 156.691 41.2232 156.876 40.9823C157.064 40.7414 157.286 40.5566 157.544 40.4279C157.804 40.2959 158.095 40.2299 158.415 40.2299C158.751 40.2299 159.045 40.2893 159.296 40.4081C159.55 40.5236 159.765 40.6936 159.939 40.9179C160.118 41.139 160.258 41.4063 160.36 41.7198C160.462 42.0333 160.533 42.388 160.573 42.784V43.2394C160.537 43.6321 160.466 43.9852 160.36 44.2987C160.258 44.6121 160.118 44.8794 159.939 45.1005C159.765 45.3216 159.55 45.4916 159.296 45.6104C159.042 45.7258 158.745 45.7836 158.405 45.7836C158.092 45.7836 157.804 45.7159 157.544 45.5807C157.286 45.4454 157.064 45.2556 156.876 45.0114C156.691 44.7672 156.547 44.4802 156.445 44.1502C156.346 43.8169 156.296 43.4555 156.296 43.0662ZM157.217 42.9622V43.0662C157.217 43.3334 157.243 43.5842 157.296 43.8185C157.352 44.0528 157.438 44.2591 157.554 44.4373C157.669 44.6154 157.816 44.7557 157.994 44.858C158.172 44.957 158.385 45.0065 158.633 45.0065C158.936 45.0065 159.185 44.9421 159.38 44.8134C159.578 44.6847 159.737 44.5148 159.855 44.3036C159.974 44.0924 160.066 43.8631 160.132 43.6156V42.4227C160.093 42.2412 160.035 42.0663 159.959 41.898C159.887 41.7264 159.791 41.5746 159.672 41.4426C159.557 41.3073 159.413 41.2001 159.242 41.1209C159.073 41.0417 158.874 41.0021 158.643 41.0021C158.392 41.0021 158.176 41.0549 157.994 41.1605C157.816 41.2628 157.669 41.4047 157.554 41.5862C157.438 41.7644 157.352 41.9723 157.296 42.2098C157.243 42.4441 157.217 42.6949 157.217 42.9622ZM165.231 38.4777L167.102 42.096L168.978 38.4777H170.062L167.577 42.9919V45.6846H166.622V42.9919L164.137 38.4777H165.231ZM170.28 43.0662V42.9523C170.28 42.5662 170.336 42.2082 170.448 41.8782C170.56 41.5449 170.722 41.2562 170.933 41.012C171.144 40.7645 171.4 40.5731 171.7 40.4378C172 40.2992 172.337 40.2299 172.71 40.2299C173.086 40.2299 173.424 40.2992 173.725 40.4378C174.028 40.5731 174.286 40.7645 174.497 41.012C174.711 41.2562 174.875 41.5449 174.987 41.8782C175.099 42.2082 175.155 42.5662 175.155 42.9523V43.0662C175.155 43.4522 175.099 43.8103 174.987 44.1403C174.875 44.4703 174.711 44.759 174.497 45.0065C174.286 45.2507 174.03 45.4421 173.73 45.5807C173.433 45.7159 173.096 45.7836 172.72 45.7836C172.344 45.7836 172.005 45.7159 171.705 45.5807C171.405 45.4421 171.147 45.2507 170.933 45.0065C170.722 44.759 170.56 44.4703 170.448 44.1403C170.336 43.8103 170.28 43.4522 170.28 43.0662ZM171.195 42.9523V43.0662C171.195 43.3334 171.227 43.5859 171.289 43.8235C171.352 44.0578 171.446 44.2657 171.571 44.4472C171.7 44.6286 171.86 44.7722 172.052 44.8778C172.243 44.9801 172.466 45.0312 172.72 45.0312C172.971 45.0312 173.19 44.9801 173.378 44.8778C173.57 44.7722 173.728 44.6286 173.853 44.4472C173.979 44.2657 174.073 44.0578 174.135 43.8235C174.201 43.5859 174.234 43.3334 174.234 43.0662V42.9523C174.234 42.6883 174.201 42.4392 174.135 42.2049C174.073 41.9673 173.977 41.7578 173.848 41.5763C173.723 41.3915 173.565 41.2463 173.373 41.1407C173.185 41.0351 172.964 40.9823 172.71 40.9823C172.459 40.9823 172.238 41.0351 172.047 41.1407C171.859 41.2463 171.7 41.3915 171.571 41.5763C171.446 41.7578 171.352 41.9673 171.289 42.2049C171.227 42.4392 171.195 42.6883 171.195 42.9523ZM179.58 44.4472V40.3289H180.501V45.6846H179.625L179.58 44.4472ZM179.753 43.3186L180.135 43.3087C180.135 43.6651 180.097 43.9951 180.021 44.2987C179.948 44.5989 179.829 44.8596 179.664 45.0807C179.499 45.3018 179.283 45.4751 179.016 45.6005C178.749 45.7225 178.424 45.7836 178.041 45.7836C177.78 45.7836 177.541 45.7456 177.323 45.6698C177.109 45.5939 176.924 45.4767 176.769 45.3183C176.614 45.1599 176.493 44.9537 176.407 44.6996C176.325 44.4455 176.284 44.1403 176.284 43.7839V40.3289H177.199V43.7938C177.199 44.0347 177.226 44.2343 177.279 44.3927C177.335 44.5478 177.409 44.6715 177.501 44.7639C177.597 44.853 177.703 44.9157 177.818 44.952C177.937 44.9883 178.059 45.0065 178.184 45.0065C178.574 45.0065 178.882 44.9322 179.11 44.7837C179.338 44.6319 179.501 44.429 179.6 44.1749C179.702 43.9175 179.753 43.6321 179.753 43.3186ZM182.812 41.1704V45.6846H181.897V40.3289H182.788L182.812 41.1704ZM184.485 40.2992L184.481 41.1506C184.405 41.1341 184.332 41.1242 184.263 41.1209C184.197 41.1143 184.121 41.111 184.035 41.111C183.824 41.111 183.637 41.144 183.476 41.21C183.314 41.276 183.177 41.3684 183.065 41.4872C182.953 41.606 182.864 41.7479 182.798 41.9129C182.735 42.0745 182.694 42.2527 182.674 42.4474L182.416 42.5959C182.416 42.2725 182.448 41.969 182.511 41.6852C182.577 41.4014 182.677 41.1506 182.812 40.9328C182.948 40.7117 183.119 40.5401 183.327 40.418C183.538 40.2926 183.789 40.2299 184.08 40.2299C184.146 40.2299 184.221 40.2382 184.307 40.2547C184.393 40.2679 184.452 40.2827 184.485 40.2992ZM187.985 38.4777H190.371C190.912 38.4777 191.369 38.5602 191.742 38.7252C192.118 38.8902 192.404 39.1344 192.598 39.4578C192.796 39.7778 192.895 40.1722 192.895 40.6408C192.895 40.9707 192.828 41.2727 192.692 41.5466C192.56 41.8172 192.369 42.0482 192.118 42.2395C191.871 42.4276 191.574 42.5679 191.227 42.6603L190.96 42.7642H188.718L188.708 41.9871H190.4C190.744 41.9871 191.029 41.9277 191.257 41.8089C191.484 41.6868 191.656 41.5235 191.772 41.3189C191.887 41.1143 191.945 40.8882 191.945 40.6408C191.945 40.3636 191.89 40.121 191.781 39.9131C191.673 39.7052 191.501 39.5452 191.267 39.433C191.036 39.3175 190.737 39.2598 190.371 39.2598H188.94V45.6846H187.985V38.4777ZM192.197 45.6846L190.445 42.4177L191.44 42.4128L193.217 45.6252V45.6846H192.197ZM197.37 44.4472V40.3289H198.29V45.6846H197.414L197.37 44.4472ZM197.543 43.3186L197.924 43.3087C197.924 43.6651 197.886 43.9951 197.81 44.2987C197.738 44.5989 197.619 44.8596 197.454 45.0807C197.289 45.3018 197.073 45.4751 196.806 45.6005C196.538 45.7225 196.213 45.7836 195.83 45.7836C195.57 45.7836 195.33 45.7456 195.113 45.6698C194.898 45.5939 194.713 45.4767 194.558 45.3183C194.403 45.1599 194.283 44.9537 194.197 44.6996C194.114 44.4455 194.073 44.1403 194.073 43.7839V40.3289H194.989V43.7938C194.989 44.0347 195.015 44.2343 195.068 44.3927C195.124 44.5478 195.198 44.6715 195.291 44.7639C195.387 44.853 195.492 44.9157 195.608 44.952C195.726 44.9883 195.849 45.0065 195.974 45.0065C196.363 45.0065 196.672 44.9322 196.9 44.7837C197.127 44.6319 197.291 44.429 197.39 44.1749C197.492 43.9175 197.543 43.6321 197.543 43.3186ZM200.602 41.4723V45.6846H199.686V40.3289H200.553L200.602 41.4723ZM200.384 42.8038L200.003 42.789C200.006 42.4227 200.061 42.0844 200.166 41.7743C200.272 41.4608 200.421 41.1885 200.612 40.9575C200.803 40.7266 201.031 40.5484 201.295 40.423C201.562 40.2943 201.858 40.2299 202.181 40.2299C202.445 40.2299 202.683 40.2662 202.894 40.3388C203.105 40.4081 203.285 40.5203 203.433 40.6754C203.585 40.8305 203.701 41.0318 203.78 41.2793C203.859 41.5235 203.899 41.8221 203.899 42.1752V45.6846H202.978V42.1653C202.978 41.8848 202.937 41.6604 202.854 41.4921C202.772 41.3205 202.651 41.1968 202.493 41.1209C202.334 41.0417 202.14 41.0021 201.909 41.0021C201.681 41.0021 201.473 41.0499 201.285 41.1456C201.1 41.2413 200.94 41.3733 200.805 41.5416C200.673 41.7099 200.569 41.903 200.493 42.1207C200.421 42.3352 200.384 42.5629 200.384 42.8038ZM206.2 41.3931V45.6846H205.28V40.3289H206.151L206.2 41.3931ZM206.012 42.8038L205.586 42.789C205.59 42.4227 205.638 42.0844 205.73 41.7743C205.822 41.4608 205.959 41.1885 206.141 40.9575C206.322 40.7266 206.548 40.5484 206.819 40.423C207.09 40.2943 207.403 40.2299 207.759 40.2299C208.01 40.2299 208.241 40.2662 208.452 40.3388C208.664 40.4081 208.847 40.5187 209.002 40.6705C209.157 40.8223 209.277 41.0169 209.363 41.2545C209.449 41.4921 209.492 41.7792 209.492 42.1158V45.6846H208.576V42.1603C208.576 41.8799 208.528 41.6555 208.433 41.4872C208.34 41.3189 208.208 41.1968 208.037 41.1209C207.865 41.0417 207.664 41.0021 207.433 41.0021C207.162 41.0021 206.936 41.0499 206.755 41.1456C206.573 41.2413 206.428 41.3733 206.319 41.5416C206.21 41.7099 206.131 41.903 206.081 42.1207C206.035 42.3352 206.012 42.5629 206.012 42.8038ZM209.482 42.2989L208.868 42.487C208.871 42.1933 208.919 41.9112 209.012 41.6406C209.107 41.37 209.244 41.1291 209.423 40.9179C209.604 40.7068 209.827 40.5401 210.091 40.418C210.355 40.2926 210.657 40.2299 210.997 40.2299C211.284 40.2299 211.538 40.2679 211.759 40.3438C211.983 40.4197 212.171 40.5368 212.323 40.6952C212.478 40.8503 212.595 41.0499 212.675 41.2941C212.754 41.5383 212.793 41.8287 212.793 42.1653V45.6846H211.873V42.1554C211.873 41.8551 211.825 41.6225 211.729 41.4575C211.637 41.2892 211.505 41.172 211.333 41.106C211.165 41.0367 210.964 41.0021 210.729 41.0021C210.528 41.0021 210.35 41.0367 210.195 41.106C210.04 41.1753 209.909 41.271 209.804 41.3931C209.698 41.5119 209.617 41.6489 209.561 41.804C209.508 41.9591 209.482 42.124 209.482 42.2989ZM217.337 44.7689V42.0119C217.337 41.8007 217.294 41.6175 217.209 41.4624C217.126 41.304 217.001 41.1819 216.832 41.0961C216.664 41.0103 216.456 40.9674 216.209 40.9674C215.978 40.9674 215.775 41.007 215.6 41.0862C215.428 41.1654 215.293 41.2694 215.194 41.3981C215.098 41.5268 215.05 41.6654 215.05 41.8139H214.135C214.135 41.6225 214.184 41.4327 214.283 41.2446C214.382 41.0565 214.524 40.8866 214.709 40.7348C214.897 40.5797 215.121 40.4576 215.382 40.3685C215.646 40.2761 215.94 40.2299 216.263 40.2299C216.653 40.2299 216.996 40.2959 217.293 40.4279C217.593 40.5599 217.827 40.7596 217.996 41.0268C218.167 41.2908 218.253 41.6225 218.253 42.0218V44.5164C218.253 44.6946 218.268 44.8844 218.298 45.0857C218.331 45.287 218.378 45.4602 218.441 45.6054V45.6846H217.486C217.44 45.579 217.403 45.4388 217.377 45.2639C217.35 45.0857 217.337 44.9207 217.337 44.7689ZM217.496 42.4375L217.506 43.081H216.58C216.319 43.081 216.087 43.1025 215.882 43.1454C215.677 43.185 215.506 43.246 215.367 43.3285C215.229 43.411 215.123 43.5149 215.05 43.6403C214.978 43.7624 214.942 43.906 214.942 44.071C214.942 44.2393 214.98 44.3927 215.055 44.5313C215.131 44.6699 215.245 44.7804 215.397 44.8629C215.552 44.9421 215.742 44.9817 215.966 44.9817C216.247 44.9817 216.494 44.9223 216.709 44.8035C216.923 44.6847 217.093 44.5395 217.218 44.368C217.347 44.1964 217.416 44.0297 217.426 43.868L217.817 44.3086C217.794 44.4472 217.732 44.6006 217.629 44.7689C217.527 44.9372 217.39 45.0989 217.218 45.254C217.05 45.4058 216.849 45.5328 216.615 45.6351C216.384 45.7341 216.123 45.7836 215.833 45.7836C215.47 45.7836 215.151 45.7126 214.877 45.5708C214.607 45.4289 214.395 45.2391 214.244 45.0015C214.095 44.7606 214.021 44.4917 214.021 44.1947C214.021 43.9076 214.077 43.6552 214.189 43.4374C214.301 43.2163 214.463 43.0332 214.674 42.888C214.885 42.7395 215.14 42.6273 215.437 42.5514C215.734 42.4755 216.065 42.4375 216.431 42.4375H217.496ZM221.936 40.3289V41.0318H219.04V40.3289H221.936ZM220.02 39.0271H220.936V44.3581C220.936 44.5395 220.964 44.6765 221.02 44.7689C221.076 44.8613 221.149 44.9223 221.238 44.952C221.327 44.9817 221.423 44.9966 221.525 44.9966C221.601 44.9966 221.68 44.99 221.762 44.9768C221.848 44.9603 221.913 44.9471 221.955 44.9372L221.96 45.6846C221.888 45.7077 221.792 45.7291 221.673 45.7489C221.558 45.772 221.418 45.7836 221.253 45.7836C221.028 45.7836 220.822 45.739 220.634 45.65C220.446 45.5609 220.296 45.4124 220.183 45.2045C220.075 44.9933 220.02 44.7095 220.02 44.3531V39.0271ZM225.232 45.7836C224.859 45.7836 224.521 45.7209 224.218 45.5955C223.917 45.4668 223.658 45.287 223.44 45.056C223.226 44.825 223.061 44.5511 222.945 44.2343C222.83 43.9175 222.772 43.571 222.772 43.1949V42.987C222.772 42.5514 222.837 42.1636 222.965 41.8238C223.094 41.4806 223.269 41.1902 223.49 40.9526C223.711 40.715 223.962 40.5352 224.242 40.4131C224.523 40.291 224.813 40.2299 225.113 40.2299C225.496 40.2299 225.826 40.2959 226.103 40.4279C226.384 40.5599 226.613 40.7447 226.791 40.9823C226.97 41.2166 227.102 41.4938 227.187 41.8139C227.273 42.1306 227.316 42.4771 227.316 42.8533V43.2642H223.317V42.5167H226.4V42.4474C226.387 42.2098 226.338 41.9789 226.252 41.7545C226.169 41.5301 226.037 41.3453 225.856 41.2001C225.674 41.0549 225.427 40.9823 225.113 40.9823C224.906 40.9823 224.714 41.0268 224.539 41.1159C224.364 41.2017 224.214 41.3304 224.089 41.502C223.963 41.6736 223.866 41.8832 223.797 42.1306C223.727 42.3781 223.693 42.6636 223.693 42.987V43.1949C223.693 43.4489 223.727 43.6882 223.797 43.9126C223.869 44.1337 223.973 44.3284 224.109 44.4966C224.247 44.6649 224.414 44.7969 224.609 44.8926C224.807 44.9883 225.031 45.0362 225.282 45.0362C225.605 45.0362 225.879 44.9702 226.103 44.8382C226.328 44.7062 226.524 44.5296 226.692 44.3086L227.247 44.7491C227.131 44.924 226.984 45.0906 226.806 45.249C226.628 45.4074 226.409 45.5361 226.148 45.6351C225.891 45.7341 225.585 45.7836 225.232 45.7836Z" fill="#B3B3B3"/>
</g>
<defs>
<clipPath id="clip0_1267_835">
<rect width="54.9097" height="50.6587" fill="white" transform="translate(5.91333)"/>
</clipPath>
<clipPath id="clip1_1267_835">
<rect width="157.971" height="32.9458" fill="white" transform="translate(70.1155 0.408752)"/>
</clipPath>
<clipPath id="clip2_1267_835">
<rect width="157.971" height="13.5162" fill="white" transform="translate(70.1155 36.7336)"/>
</clipPath>
</defs>
</svg>
